<?xml version="1.0" encoding="UTF-8"?>
<!-- Generator: https://ezgif.com/png-to-svg -->
<svg version="1.1" xmlns="http://www.w3.org/2000/svg" width="540" height="215">
<path d="M0 0 C1.27 -0.01 1.27 -0.01 2.57 -0.01 C5.44 -0.02 8.31 -0.01 11.18 -0 C13.24 -0.01 15.31 -0.01 17.38 -0.02 C23.08 -0.03 28.78 -0.02 34.48 -0.01 C40.61 -0.01 46.75 -0.02 52.89 -0.03 C64.23 -0.04 75.57 -0.04 86.91 -0.03 C97.38 -0.02 107.85 -0.02 118.33 -0.02 C119.37 -0.02 119.37 -0.02 120.43 -0.02 C123.25 -0.03 126.06 -0.03 128.88 -0.03 C155.32 -0.04 181.75 -0.03 208.19 -0.01 C231.7 0 255.2 0 278.7 -0.01 C305.09 -0.03 331.48 -0.04 357.87 -0.03 C360.68 -0.03 363.49 -0.02 366.3 -0.02 C367.34 -0.02 367.34 -0.02 368.4 -0.02 C378.87 -0.02 389.34 -0.02 399.81 -0.03 C411.71 -0.04 423.6 -0.04 435.5 -0.02 C441.58 -0.01 447.66 -0.01 453.73 -0.02 C459.29 -0.03 464.84 -0.02 470.4 -0.01 C472.41 -0.01 474.43 -0.01 476.45 -0.01 C479.18 -0.02 481.9 -0.01 484.63 0 C485.42 -0.01 486.22 -0.01 487.04 -0.02 C492.32 0.03 492.32 0.03 494.8 1.76 C496.19 3.98 496.2 5.56 496.22 8.17 C496.24 9.63 496.24 9.63 496.26 11.11 C496.25 12.68 496.25 12.68 496.25 14.28 C496.25 15.36 496.26 16.44 496.26 17.55 C496.27 19.82 496.27 22.1 496.26 24.37 C496.25 27.86 496.28 31.35 496.31 34.84 C496.31 37.05 496.31 39.26 496.31 41.47 C496.32 42.52 496.33 43.57 496.35 44.64 C496.34 45.61 496.33 46.59 496.32 47.59 C496.32 48.87 496.32 48.87 496.32 50.18 C495.81 52.38 495.81 52.38 494.3 53.99 C490.78 55.95 487.47 55.79 483.54 55.76 C482.27 55.76 482.27 55.76 480.98 55.77 C478.12 55.78 475.27 55.77 472.42 55.76 C470.36 55.76 468.3 55.77 466.24 55.77 C460.57 55.79 454.9 55.78 449.22 55.77 C443.11 55.76 437 55.77 430.89 55.78 C419.6 55.79 408.31 55.79 397.03 55.78 C386.6 55.78 376.18 55.78 365.75 55.78 C365.06 55.78 364.37 55.78 363.66 55.78 C360.85 55.78 358.05 55.78 355.24 55.78 C328.92 55.79 302.6 55.78 276.28 55.77 C252.89 55.75 229.49 55.75 206.09 55.77 C179.82 55.78 153.55 55.79 127.28 55.78 C124.48 55.78 121.68 55.78 118.88 55.78 C118.19 55.78 117.5 55.78 116.79 55.78 C106.37 55.77 95.95 55.78 85.53 55.79 C73.68 55.79 61.84 55.79 49.99 55.78 C43.94 55.77 37.9 55.77 31.85 55.78 C26.32 55.78 20.79 55.78 15.26 55.76 C13.25 55.76 11.24 55.76 9.24 55.77 C6.52 55.78 3.81 55.77 1.09 55.76 C0.3 55.76 -0.49 55.77 -1.3 55.78 C-4.54 55.74 -6.82 55.58 -9.67 53.99 C-11.71 51.81 -11.69 50.55 -11.69 47.59 C-11.7 46.62 -11.71 45.64 -11.72 44.64 C-11.7 43.6 -11.69 42.55 -11.68 41.47 C-11.68 40.4 -11.68 39.32 -11.69 38.21 C-11.68 35.93 -11.67 33.66 -11.65 31.38 C-11.62 27.89 -11.63 24.4 -11.64 20.91 C-11.64 18.7 -11.63 16.49 -11.62 14.28 C-11.62 13.24 -11.62 12.19 -11.63 11.11 C-11.61 10.14 -11.6 9.17 -11.59 8.17 C-11.58 7.31 -11.58 6.46 -11.57 5.58 C-11.19 3.38 -11.19 3.38 -10.17 1.76 C-7.04 -0.42 -3.69 -0.03 0 0 Z " fill="#08466F" transform="translate(25.18506622314453,148.6224765777588)"/>
<path d="M0 0 C6.54 13.57 12.37 27.44 18.25 41.31 C19.23 43.63 20.22 45.94 21.2 48.25 C27.82 63.83 34.41 79.41 41 95 C48.35 95.1 55.69 95.17 63.04 95.22 C65.54 95.24 68.03 95.27 70.53 95.3 C74.13 95.35 77.73 95.37 81.33 95.39 C82.43 95.41 83.54 95.43 84.67 95.45 C95.53 95.46 104.25 92.74 112.12 85.14 C118.57 77.79 120.5 68.19 120.25 58.61 C119.27 48.32 115.42 39.42 107.44 32.69 C94.54 24.06 80.46 25.62 65 25 C65 46.78 65 68.56 65 91 C55.11 90.01 50.21 88.64 43.69 81.75 C37.08 73.14 37.59 63.41 37.71 53.03 C37.71 51.49 37.72 49.96 37.72 48.42 C37.73 44.42 37.76 40.41 37.79 36.4 C37.82 32.29 37.84 28.19 37.85 24.09 C37.89 16.06 37.94 8.03 38 0 C45.25 -0.08 52.51 -0.13 59.77 -0.16 C62.23 -0.18 64.69 -0.2 67.15 -0.23 C90.84 -0.47 114.9 0.35 133.47 17.25 C145.66 29.95 149.54 44.92 149.42 62.07 C148.95 78.52 143.11 93.89 131.88 106 C118.46 118.47 102.11 121.48 84.3 121.47 C82.82 121.48 81.34 121.48 79.85 121.49 C76.77 121.51 73.68 121.51 70.59 121.5 C66.66 121.5 62.73 121.53 58.8 121.57 C55.74 121.59 52.69 121.59 49.63 121.59 C48.18 121.59 46.73 121.6 45.28 121.62 C35.72 121.73 27.63 120.95 20.17 114.4 C15.59 109.72 13.27 103.63 10.75 97.69 C10.26 96.56 9.77 95.43 9.26 94.26 C7.83 90.96 6.41 87.65 5 84.34 C3.5 80.84 2 77.34 0.49 73.83 C-2.38 67.14 -5.26 60.44 -8.12 53.74 C-8.5 52.85 -8.88 51.95 -9.28 51.03 C-10 49.33 -10.73 47.64 -11.45 45.94 C-13.14 41.93 -13.14 41.93 -15 38 C-19.95 50.54 -24.9 63.08 -30 76 C-33 76 -33 76 -35.7 74.14 C-39.41 71.74 -42.63 70.75 -46.88 69.75 C-47.56 69.58 -48.25 69.4 -48.96 69.23 C-50.64 68.81 -52.32 68.4 -54 68 C-52.01 61.76 -49.74 55.69 -47.2 49.65 C-46.84 48.8 -46.48 47.94 -46.11 47.06 C-45.36 45.26 -44.6 43.47 -43.84 41.67 C-42.69 38.95 -41.56 36.21 -40.42 33.48 C-39.68 31.73 -38.94 29.97 -38.2 28.21 C-37.87 27.41 -37.54 26.6 -37.19 25.77 C-32.32 14.39 -24.61 5.67 -13 1 C-8.68 -0.34 -4.47 -0.07 0 0 Z " fill="#519FD6" transform="translate(88,20)"/>
<path d="M0 0 C1.87 1.99 1.87 1.99 3.88 4.88 C4.67 5.98 5.46 7.09 6.26 8.2 C6.91 9.11 6.91 9.11 7.58 10.04 C10.21 13.66 12.99 17.17 15.75 20.69 C21.53 28.1 27.26 35.54 32.96 43.02 C36.52 47.68 40.1 52.33 43.68 56.97 C46.48 60.63 49.24 64.32 52 68 C52.33 45.56 52.66 23.12 53 0 C69.22 2.95 69.22 2.95 74.86 10.48 C78.11 15.72 80.13 20.02 80.12 26.24 C80.12 27.5 80.12 27.5 80.12 28.78 C80.12 30.15 80.12 30.15 80.11 31.54 C80.11 32.51 80.11 33.47 80.11 34.47 C80.11 37.66 80.11 40.85 80.1 44.05 C80.1 46.26 80.09 48.47 80.09 50.69 C80.09 56.51 80.08 62.34 80.07 68.17 C80.06 74.11 80.05 80.06 80.05 86 C80.04 97.67 80.02 109.33 80 121 C78.56 121.01 77.11 121.02 75.67 121.03 C74.87 121.04 74.07 121.04 73.24 121.05 C61.94 120.81 51.74 113.63 44 106 C41.46 103.01 39.17 99.87 36.88 96.69 C35.56 94.9 34.25 93.12 32.94 91.34 C31.95 90 31.95 90 30.95 88.63 C27.99 84.64 24.94 80.72 21.88 76.81 C17.14 70.75 12.43 64.67 7.75 58.56 C7.2 57.85 6.65 57.13 6.09 56.39 C5.58 55.73 5.07 55.06 4.55 54.38 C4.1 53.8 3.66 53.22 3.2 52.62 C2.08 51.11 1.04 49.56 0 48 C-0 48.65 -0 49.31 -0 49.98 C-0.02 56.83 -0.08 63.68 -0.15 70.52 C-0.18 73.07 -0.19 75.62 -0.2 78.17 C-0.2 81.85 -0.25 85.53 -0.29 89.21 C-0.29 90.91 -0.29 90.91 -0.28 92.63 C-0.43 100.83 -2.09 107.71 -7.74 113.91 C-13.89 119.66 -19.82 121.15 -28 121 C-28.09 108.41 -28.16 95.82 -28.21 83.24 C-28.23 77.39 -28.26 71.55 -28.3 65.7 C-28.35 60.05 -28.37 54.41 -28.38 48.76 C-28.39 46.61 -28.4 44.46 -28.42 42.31 C-28.65 18.68 -28.65 18.68 -22.11 9.28 C-15.42 3.07 -9.31 0 0 0 Z " fill="#07456F" transform="translate(308,20)"/>
<path d="M0 0 C1.75 3.92 3.5 7.83 5.25 11.75 C5.72 12.8 6.19 13.86 6.68 14.94 C11.77 26.36 16.67 37.85 21.58 49.34 C24.49 56.14 27.4 62.94 30.32 69.74 C31.36 72.17 32.4 74.6 33.44 77.03 C33.95 78.22 34.47 79.42 34.99 80.65 C45.65 105.51 45.65 105.51 46.88 108.4 C47.57 110 48.27 111.6 48.98 113.19 C50.24 116 51 117.87 51 121 C40.29 121.7 31.67 118.12 23 112 C22.15 111.44 21.31 110.89 20.44 110.31 C13.24 103.49 9.17 94.67 5.36 85.68 C4.86 84.53 4.36 83.38 3.85 82.2 C2.81 79.8 1.78 77.39 0.76 74.99 C-0.81 71.31 -2.4 67.64 -3.99 63.97 C-5 61.62 -6.01 59.27 -7.02 56.93 C-7.73 55.29 -7.73 55.29 -8.45 53.62 C-10.64 48.46 -12.64 43.44 -14 38 C-14.66 38 -15.32 38 -16 38 C-16.13 38.72 -16.25 39.45 -16.38 40.19 C-16.99 42.94 -17.81 45.36 -18.85 47.97 C-19.24 48.93 -19.62 49.89 -20.01 50.88 C-20.42 51.91 -20.84 52.94 -21.26 54 C-21.69 55.08 -22.12 56.15 -22.56 57.26 C-23.47 59.53 -24.38 61.81 -25.29 64.08 C-26.67 67.52 -28.04 70.97 -29.41 74.42 C-30.3 76.63 -31.19 78.85 -32.07 81.07 C-32.68 82.59 -32.68 82.59 -33.3 84.15 C-39.64 99.89 -45.39 111.42 -61.3 118.91 C-66.67 121.08 -71.27 121.08 -77 121 C-72.55 108.66 -67.5 96.64 -62.25 84.62 C-60.56 80.75 -58.88 76.87 -57.19 72.99 C-56.76 72.01 -56.34 71.02 -55.89 70.01 C-52.87 63.05 -49.91 56.07 -46.96 49.07 C-45.76 46.21 -44.55 43.36 -43.35 40.5 C-42.58 38.68 -41.82 36.86 -41.06 35.04 C-40 32.5 -38.93 29.96 -37.86 27.42 C-37.55 26.68 -37.25 25.95 -36.94 25.19 C-32.98 15.93 -26.5 7.26 -17.36 2.68 C-11.37 0.29 -6.39 -0.2 0 0 Z " fill="#07456F" transform="translate(470,20)"/>
<path d="M0 0 C3.56 -0.12 7.12 -0.19 10.69 -0.25 C12.2 -0.3 12.2 -0.3 13.74 -0.35 C17.98 -0.41 21.22 -0.32 25.17 1.32 C28.14 5.68 27.65 10.04 27.57 15.19 C27.57 16.34 27.57 17.48 27.57 18.65 C27.57 22.43 27.53 26.21 27.49 29.98 C27.48 32.6 27.47 35.22 27.47 37.84 C27.45 44.02 27.41 50.21 27.36 56.4 C27.3 63.44 27.28 70.49 27.25 77.53 C27.2 92.02 27.11 106.51 27 121 C23.06 121.06 19.13 121.09 15.19 121.12 C14.07 121.14 12.95 121.16 11.79 121.18 C10.72 121.18 9.65 121.19 8.54 121.2 C7.55 121.21 6.56 121.22 5.54 121.23 C3 121 3 121 0 119 C-0.37 116.9 -0.37 116.9 -0.36 114.24 C-0.36 113.24 -0.37 112.23 -0.37 111.2 C-0.36 110.09 -0.35 108.99 -0.34 107.85 C-0.34 106.69 -0.34 105.53 -0.34 104.33 C-0.34 100.48 -0.32 96.63 -0.29 92.77 C-0.29 90.11 -0.28 87.44 -0.28 84.78 C-0.27 78.47 -0.25 72.16 -0.22 65.86 C-0.18 58.68 -0.17 51.5 -0.15 44.32 C-0.12 29.54 -0.07 14.77 0 0 Z " fill="#07456F" transform="translate(243,20)"/>
<path d="M0 0 C1.19 0.01 2.38 0.02 3.6 0.03 C4.52 0.04 5.43 0.05 6.38 0.06 C6.52 3.98 6.61 7.89 6.69 11.81 C6.73 12.92 6.77 14.03 6.81 15.18 C6.94 23.36 6.94 23.36 4.18 26.81 C1.23 28.13 -0.6 28.52 -3.81 28.38 C-5.1 28.34 -5.1 28.34 -6.42 28.3 C-8.62 28.06 -8.62 28.06 -10.62 27.06 C-10.25 25.12 -10.25 25.12 -9.62 23.06 C-6.76 21.63 -4.69 22.46 -1.62 23.06 C-0.96 22.07 -0.31 21.08 0.38 20.06 C-0.29 20.39 -0.94 20.72 -1.62 21.06 C-5.31 21.46 -6.97 21.57 -9.94 19.25 C-12.66 15.72 -12.96 12.47 -12.92 8.07 C-12.46 4.92 -10.86 3.23 -8.62 1.06 C-5.74 -0.38 -3.21 -0.03 0 0 Z " fill="#F5F7F9" transform="translate(503.625,166.9375)"/>
<path d="M0 0 C2.31 0 4.62 0 7 0 C7 9.57 7 19.14 7 29 C4.33 29 1.67 29 -1 29 C-2.42 29.12 -2.42 29.12 -3.88 29.25 C-7 29 -7 29 -9.31 27.19 C-11.99 23.71 -12.41 20.42 -12.34 16.07 C-11.7 12.19 -9.96 10.57 -7 8 C-3.69 7.62 -3.69 7.62 -1 8 C-0.67 5.36 -0.34 2.72 0 0 Z " fill="#EFF3F6" transform="translate(374,159)"/>
<path d="M0 0 C2.31 0 4.62 0 7 0 C8.35 3.33 9.67 6.66 11 10 C11.68 11.69 11.68 11.69 12.38 13.42 C13.06 15.13 13.06 15.13 13.75 16.88 C14.18 17.94 14.61 19.01 15.05 20.12 C16 23 16 23 16 27 C13.69 27 11.38 27 9 27 C8.67 25.68 8.34 24.36 8 23 C5.03 22.67 2.06 22.34 -1 22 C-1.33 23.65 -1.66 25.3 -2 27 C-4.31 27 -6.62 27 -9 27 C-7.71 20.49 -5.86 14.58 -3.38 8.44 C-3.05 7.62 -2.73 6.8 -2.39 5.96 C-1.6 3.97 -0.8 1.98 0 0 Z " fill="#F3F6F8" transform="translate(244,161)"/>
<path d="M0 0 C4.6 2.2 4.6 2.2 6 5 C6.6 10.31 6.89 14.58 4 19.19 C0.17 21.5 -2.63 21.97 -7 21 C-10.44 18.88 -11.72 17.85 -13 14 C-13.57 6.9 -13.57 6.9 -11.12 3.06 C-7.51 -0.45 -4.98 -0.34 0 0 Z " fill="#F2F5F7" transform="translate(430,167)"/>
<path d="M0 0 C4.37 2.3 4.37 2.3 6 5 C6.73 8.79 6.7 12.21 6 16 C4.1 18.66 2.86 19.57 0 21 C-3.01 21.35 -5.09 21.57 -8 21 C-11.25 18.36 -12.63 16.85 -13.44 12.77 C-13.65 8.68 -13.33 6.53 -11.12 3 C-7.49 -0.42 -4.94 -0.49 0 0 Z " fill="#F3F6F8" transform="translate(333,167)"/>
<path d="M0 0 C3.59 1.64 4.79 2.69 7 6 C7 7.32 7 8.64 7 10 C4.69 10 2.38 10 0 10 C-0.33 9.01 -0.66 8.02 -1 7 C-2.98 7 -4.96 7 -7 7 C-7.93 9.79 -8.16 11.61 -8.19 14.5 C-8.2 15.27 -8.22 16.05 -8.23 16.84 C-8.14 19.3 -8.14 19.3 -6 22 C-2.07 21.43 -2.07 21.43 1 19 C4.12 18.88 4.12 18.88 7 19 C6.73 22.24 6.17 23.79 4.06 26.31 C-0.29 28.71 -4.14 28.95 -9 28 C-11.82 25.81 -13.42 24.17 -15 21 C-16.06 9.24 -16.06 9.24 -13.95 4.78 C-9.93 -0.04 -6.03 -0.66 0 0 Z " fill="#F3F6F8" transform="translate(311,160)"/>
<path d="M0 0 C2.81 2.81 2.33 4.7 2.38 8.62 C2.25 15.8 1.32 20.5 -3.65 25.74 C-8.62 30.28 -12.96 32.52 -19.88 32.31 C-23.73 31.75 -26.88 30.31 -30 28 C-32.69 24.34 -33.05 22.67 -32.69 18.12 C-32.46 17.09 -32.23 16.06 -32 15 C-30.02 14.34 -28.04 13.68 -26 13 C-25.91 14.89 -25.91 14.89 -25.81 16.81 C-25.4 19.99 -25.29 20.73 -22.88 23 C-19.32 24.24 -16.74 24.4 -13 24 C-10.24 22.59 -10.24 22.59 -8 21 C-7.34 21 -6.68 21 -6 21 C-2.53 14.47 -0.8 7.32 0 0 Z " fill="#519FD6" transform="translate(63,103)"/>
<path d="M0 0 C2.77 2.7 4.19 4.71 5.44 8.38 C5.22 12.1 5.1 13.71 2.44 16.38 C1.12 16.38 -0.2 16.38 -1.56 16.38 C-1.64 15.28 -1.73 14.19 -1.81 13.06 C-2.23 9.43 -2.23 9.43 -4.25 7.5 C-8.62 5.37 -11.42 5.03 -16.12 6.44 C-21.14 9.26 -23.78 12.3 -25.81 17.69 C-26.67 21.91 -27.19 26.09 -27.56 30.38 C-30.48 27.46 -29.86 25.19 -29.88 21.12 C-29.89 19.82 -29.91 18.52 -29.93 17.17 C-29.35 11.17 -26.67 6.71 -22.56 2.38 C-15.83 -2.81 -7.78 -3.55 0 0 Z " fill="#519FD6" transform="translate(43.5625,100.625)"/>
<path d="M0 0 C3 0 6 0 9 0 C10.49 -0.12 10.49 -0.12 12 -0.25 C15 0 15 0 16.68 1.47 C18.63 5.2 18.32 8.6 18.19 12.75 C18.17 13.94 18.17 13.94 18.15 15.15 C18.11 17.1 18.06 19.05 18 21 C16.02 21 14.04 21 12 21 C11.67 16.05 11.34 11.1 11 6 C10.01 6 9.02 6 8 6 C7.5 13.43 7.5 13.43 7 21 C4.69 21 2.38 21 0 21 C0 14.07 0 7.14 0 0 Z " fill="#F0F3F6" transform="translate(439,167)"/>
<path d="M0 0 C3.19 0.31 3.19 0.31 5.37 1.79 C8.03 5.48 7.63 8.64 7.44 13.06 C7.42 13.86 7.4 14.65 7.38 15.46 C7.34 17.41 7.26 19.36 7.19 21.31 C4.88 21.31 2.57 21.31 0.19 21.31 C-0.14 16.36 -0.47 11.41 -0.81 6.31 C-1.8 6.31 -2.79 6.31 -3.81 6.31 C-4.31 13.74 -4.31 13.74 -4.81 21.31 C-6.79 21.31 -8.77 21.31 -10.81 21.31 C-10.81 14.71 -10.81 8.11 -10.81 1.31 C-8.5 1.31 -6.19 1.31 -3.81 1.31 C-2.81 0.31 -2.81 0.31 0 0 Z " fill="#F1F4F7" transform="translate(481.8125,166.6875)"/>
<path d="M0 0 C2.03 3.05 2.25 3.6 2.2 7.01 C2.19 7.77 2.18 8.53 2.18 9.31 C2.16 10.09 2.14 10.88 2.12 11.69 C2.12 12.48 2.11 13.28 2.1 14.1 C2.07 16.07 2.04 18.03 2 20 C-0.31 20 -2.62 20 -5 20 C-5.33 15.05 -5.66 10.1 -6 5 C-6.99 5 -7.98 5 -9 5 C-9.5 12.43 -9.5 12.43 -10 20 C-11.98 20 -13.96 20 -16 20 C-16 13.4 -16 6.8 -16 0 C-13.69 0 -11.38 0 -9 0 C-5.85 -1.57 -3.36 -0.72 0 0 Z " fill="#F2F5F7" transform="translate(358,168)"/>
<path d="M0 0 C1.98 0 3.96 0 6 0 C6 1.98 6 3.96 6 6 C6.99 6 7.98 6 9 6 C9 7.32 9 8.64 9 10 C8.01 10 7.02 10 6 10 C6.33 13.3 6.66 16.6 7 20 C7.99 20.33 8.98 20.66 10 21 C10 22.65 10 24.3 10 26 C3.95 26.2 3.95 26.2 2 26 C0 24 0 24 -0.2 20.74 C-0.17 19.47 -0.15 18.19 -0.12 16.88 C-0.11 15.59 -0.09 14.31 -0.07 12.99 C-0.05 12 -0.02 11.02 0 10 C-0.99 10 -1.98 10 -3 10 C-3 8.68 -3 7.36 -3 6 C-2.01 6 -1.02 6 0 6 C0 4.02 0 2.04 0 0 Z " fill="#F5F8F9" transform="translate(396,162)"/>
<path d="M0 0 C4.29 0 8.58 0 13 0 C13 2.31 13 4.62 13 7 C11.02 7 9.04 7 7 7 C7 11.62 7 16.24 7 21 C4.69 21 2.38 21 0 21 C0 14.07 0 7.14 0 0 Z " fill="#DCE5EB" transform="translate(272,167)"/>
<path d="M0 0 C3.54 3.1 4.84 4.89 5.5 9.56 C4.97 13.19 4.22 15.12 2 18 C-2 20.67 -5.29 20.83 -10 20 C-12.76 17.82 -14.44 16.13 -16 13 C-16.38 9.75 -16.67 7.16 -14.99 4.24 C-10.73 -1.05 -6.42 -2.01 0 0 Z M-9.75 3.56 C-12.16 5.87 -12.16 5.87 -13.12 8.94 C-13.26 12.17 -13.26 12.17 -11 14.94 C-8.11 17.33 -8.11 17.33 -4.38 17.06 C-1.02 16.26 -1.02 16.26 0.94 14.25 C2.23 11.51 2.52 10 2 7 C0.06 4.41 -1.45 3.23 -4.44 2 C-7.16 1.79 -7.16 1.79 -9.75 3.56 Z " fill="#07456F" transform="translate(499,19)"/>
<path d="M0 0 C2.31 0 4.62 0 7 0 C7 6.93 7 13.86 7 21 C4.69 21 2.38 21 0 21 C0 14.07 0 7.14 0 0 Z " fill="#E5EBEF" transform="translate(262,167)"/>
<path d="M0 0 C0.66 0 1.32 0 2 0 C1.89 0.57 1.79 1.14 1.68 1.72 C0.8 7.36 1.01 10.92 4 16 C8.87 20.74 13.64 22.18 20.31 22.62 C21.38 22.7 22.45 22.77 23.55 22.85 C24.36 22.9 25.17 22.95 26 23 C26 23.66 26 24.32 26 25 C20.2 26.93 12.84 27.04 7.06 24.88 C2.92 22.34 0.2 19.4 -2 15 C-2.12 13.21 -2.18 11.42 -2.19 9.62 C-2.2 8.67 -2.22 7.71 -2.23 6.73 C-2 3.97 -1.41 2.35 0 0 Z " fill="#B6C6CF" transform="translate(28,116)"/>
<path d="M0 0 C4.2 1.97 6.97 4.32 9.5 8.28 C10.43 11.05 10.67 12.85 10.69 15.72 C10.71 16.48 10.72 17.24 10.73 18.03 C10.48 20.51 9.74 22.13 8.5 24.28 C7.84 24.28 7.18 24.28 6.5 24.28 C6.55 23.56 6.6 22.83 6.64 22.09 C6.82 17.49 6.86 14.1 5 9.84 C-0.65 4.04 -6.32 2.84 -14.27 2.55 C-15.01 2.46 -15.74 2.37 -16.5 2.28 C-16.83 1.62 -17.16 0.96 -17.5 0.28 C-12.6 -2.17 -5.15 -1.48 0 0 Z " fill="#B6C6CF" transform="translate(42.49609375,91.71875)"/>
<path d="M0 0 C1.98 0 3.96 0 6 0 C6 6.6 6 13.2 6 20 C4.02 20 2.04 20 0 20 C0 13.4 0 6.8 0 0 Z " fill="#FBFCFD" transform="translate(461,168)"/>
<path d="M0 0 C1.98 0 3.96 0 6 0 C6 6.6 6 13.2 6 20 C4.02 20 2.04 20 0 20 C0 13.4 0 6.8 0 0 Z " fill="#FBFCFD" transform="translate(408,168)"/>
<path d="M0 0 C1.98 0 3.96 0 6 0 C6 6.6 6 13.2 6 20 C4.02 20 2.04 20 0 20 C0 13.4 0 6.8 0 0 Z " fill="#FBFCFD" transform="translate(385,168)"/>
<path d="M0 0 C2.33 -0.04 4.67 -0.04 7 0 C8 1 8 1 8.1 3.07 C8.09 3.89 8.07 4.71 8.06 5.56 C8.05 6.39 8.04 7.22 8.04 8.07 C8.02 8.7 8.01 9.34 8 10 C7.01 10 6.02 10 5 10 C4.67 9.01 4.34 8.02 4 7 C3.34 6.67 2.68 6.34 2 6 C2 7.32 2 8.64 2 10 C1.34 10 0.68 10 0 10 C0 6.7 0 3.4 0 0 Z M2 2 C2 2.66 2 3.32 2 4 C2.66 4 3.32 4 4 4 C4 3.34 4 2.68 4 2 C3.34 2 2.68 2 2 2 Z " fill="#07456F" transform="translate(490,24)"/>
<path d="M0 0 C1.32 0.33 2.64 0.66 4 1 C4 3.97 4 6.94 4 10 C2.35 10.33 0.7 10.66 -1 11 C-2.51 7.99 -2.18 5.32 -2 2 C-1.34 1.34 -0.68 0.68 0 0 Z " fill="#195279" transform="translate(500,172)"/>
<path d="M0 0 C2.12 0.94 2.12 0.94 4 2 C4.12 8.75 4.12 8.75 3 11 C1.35 10.67 -0.3 10.34 -2 10 C-2 7.03 -2 4.06 -2 1 C-1.34 0.67 -0.68 0.34 0 0 Z " fill="#124D75" transform="translate(426,172)"/>
<path d="M0 0 C3.69 0.69 3.69 0.69 5 2 C5.19 5.44 5.19 5.44 5 9 C4.34 9.66 3.68 10.32 3 11 C0.88 10.62 0.88 10.62 -1 10 C-1.03 8.52 -1.05 7.04 -1.06 5.56 C-1.07 4.74 -1.09 3.92 -1.1 3.07 C-1 1 -1 1 0 0 Z " fill="#144F77" transform="translate(328,172)"/>
<path d="M0 0 C0.99 0.33 1.98 0.66 3 1 C3 4.3 3 7.6 3 11 C1.35 10.67 -0.3 10.34 -2 10 C-2.2 3.95 -2.2 3.95 -2 2 C-1.34 1.34 -0.68 0.68 0 0 Z " fill="#114C74" transform="translate(371,172)"/>
<path d="M0 0 C2.12 0.38 2.12 0.38 4 1 C4.62 2.88 4.62 2.88 5 5 C4.34 5.66 3.68 6.32 3 7 C0.88 6.62 0.88 6.62 -1 6 C-1.62 4.12 -1.62 4.12 -2 2 C-1.34 1.34 -0.68 0.68 0 0 Z " fill="#E5EBEF" transform="translate(264,159)"/>
<path d="M0 0 C1.98 0 3.96 0 6 0 C6 1.65 6 3.3 6 5 C4.35 5.33 2.7 5.66 1 6 C-0.06 4.12 -0.06 4.12 -1 2 C-0.67 1.34 -0.34 0.68 0 0 Z " fill="#E8EDF1" transform="translate(461,160)"/>
<path d="M0 0 C1.98 0 3.96 0 6 0 C6 1.65 6 3.3 6 5 C4.34 5.38 2.68 5.71 1 6 C0 5 0 5 -0.06 2.44 C-0.04 1.63 -0.02 0.83 0 0 Z " fill="#EAEFF2" transform="translate(408,160)"/>
<path d="M0 0 C1.98 0 3.96 0 6 0 C6 1.65 6 3.3 6 5 C4.34 5.38 2.68 5.71 1 6 C0 5 0 5 -0.06 2.44 C-0.04 1.63 -0.02 0.83 0 0 Z " fill="#EAEFF2" transform="translate(385,160)"/>
<path d="M0 0 C0.81 0.09 1.61 0.18 2.44 0.27 C4.44 0.62 4.44 0.62 5.44 1.62 C5.48 3.29 5.48 4.96 5.44 6.62 C4.76 5.97 4.08 5.31 3.38 4.62 C-0.21 2.19 -2.32 2.29 -6.56 2.62 C-6.56 1.97 -6.56 1.31 -6.56 0.62 C-4.07 -0.62 -2.75 -0.33 0 0 Z " fill="#B6C6CF" transform="translate(34.5625,107.375)"/>
<path d="M0 0 C1.05 0.99 1.05 0.99 2.12 2 C5.43 4.3 7.06 4.37 11 4 C11 4.66 11 5.32 11 6 C4.72 7.21 4.72 7.21 1.62 6.31 C0 5 0 5 -0.81 2.94 C-0.87 2.3 -0.94 1.66 -1 1 C-0.67 0.67 -0.34 0.34 0 0 Z " fill="#B6C6CF" transform="translate(39,119)"/>
<path d="M0 0 C1.95 2.92 2.45 4.63 3 8 C1.35 8 -0.3 8 -2 8 C-1.12 2.25 -1.12 2.25 0 0 Z " fill="#2F6386" transform="translate(247,170)"/>
<path d="M0 0 C2.97 0 5.94 0 9 0 C8.34 1.32 7.68 2.64 7 4 C4.03 3.5 4.03 3.5 1 3 C0.67 2.01 0.34 1.02 0 0 Z " fill="#2C6084" transform="translate(495,187)"/>
</svg>
