<?xml version="1.0" encoding="UTF-8"?>
<svg xmlns="http://www.w3.org/2000/svg" xmlns:xlink="http://www.w3.org/1999/xlink" width="517pt" height="67pt" viewBox="0 0 517 67" version="1.1">
<g id="surface1">
<path style=" stroke:none;fill-rule:nonzero;fill:rgb(13.699341%,12.199402%,12.5%);fill-opacity:1;" d="M 53.355469 54.191406 C 52.6875 57.746094 52.109375 61.378906 51.625 65.058594 C 48.148438 65.667969 44.96875 66.089844 42.070313 66.339844 C 39.183594 66.570313 36.707031 66.695313 34.632813 66.695313 C 30.0625 66.695313 25.699219 66.058594 21.535156 64.78125 C 17.371094 63.5 13.628906 61.488281 10.292969 58.730469 C 6.957031 55.96875 4.539063 52.632813 3.058594 48.703125 C 1.5625 44.777344 0.8125 40.488281 0.8125 35.828125 C 0.8125 30.773438 1.71875 26.097656 3.511719 21.808594 C 5.304688 17.507813 7.890625 13.890625 11.261719 10.925781 C 14.613281 7.980469 18.601563 5.78125 23.203125 4.332031 C 27.800781 2.882813 32.589844 2.164063 37.59375 2.164063 C 42.519531 2.164063 47.914063 2.726563 53.761719 3.847656 C 53.855469 6.5625 53.949219 8.480469 54.042969 9.601563 L 54.355469 14.496094 C 50.910156 13.59375 48.054688 12.96875 45.761719 12.625 C 43.488281 12.296875 41.304688 12.128906 39.230469 12.128906 C 35.972656 12.128906 32.855469 12.625 29.84375 13.609375 C 26.851563 14.605469 24.199219 16.179688 21.894531 18.332031 C 19.601563 20.5 17.839844 23.101563 16.609375 26.175781 C 15.375 29.230469 14.753906 32.410156 14.753906 35.730469 C 14.753906 39.691406 15.515625 43.230469 17.042969 46.367188 C 18.554688 49.515625 21.003906 52.058594 24.371094 54.007813 C 27.738281 55.953125 31.902344 56.921875 36.859375 56.921875 C 41.460938 56.921875 46.964844 56.015625 53.355469 54.191406 Z M 80.734375 18.050781 C 84.226563 18.050781 87.578125 18.582031 90.789063 19.625 C 94.019531 20.671875 96.730469 22.230469 98.976563 24.289063 C 101.207031 26.347656 102.890625 28.855469 104.027344 31.820313 C 105.152344 34.796875 105.714844 37.914063 105.714844 41.207031 C 105.714844 44.683594 105.121094 48.035156 103.933594 51.261719 C 102.75 54.488281 101.019531 57.28125 98.773438 59.632813 C 96.511719 62.003906 93.707031 63.765625 90.339844 64.9375 C 86.972656 66.105469 83.386719 66.695313 79.582031 66.695313 C 76.058594 66.695313 72.6875 66.167969 69.507813 65.121094 C 66.328125 64.078125 63.613281 62.488281 61.355469 60.398438 C 59.109375 58.292969 57.394531 55.738281 56.222656 52.726563 C 55.054688 49.703125 54.464844 46.550781 54.464844 43.261719 C 54.464844 39.910156 54.992188 36.714844 56.070313 33.675781 C 57.128906 30.632813 58.796875 27.921875 61.058594 25.535156 C 63.335938 23.164063 66.234375 21.324219 69.757813 20.015625 C 73.296875 18.707031 76.945313 18.050781 80.734375 18.050781 Z M 80.734375 27.46875 C 78.082031 27.46875 75.714844 28.109375 73.625 29.402344 C 71.535156 30.695313 69.992188 32.628906 68.964844 35.1875 C 67.949219 37.742188 67.433594 40.535156 67.433594 43.542969 C 67.433594 46.195313 67.855469 48.546875 68.699219 50.621094 C 69.523438 52.695313 70.898438 54.363281 72.796875 55.644531 C 74.699219 56.921875 76.960938 57.5625 79.582031 57.5625 C 82.261719 57.5625 84.617188 56.90625 86.644531 55.582031 C 88.671875 54.253906 90.183594 52.304688 91.210938 49.734375 C 92.226563 47.160156 92.738281 44.324219 92.738281 41.21875 C 92.738281 38.679688 92.351563 36.386719 91.554688 34.3125 C 90.761719 32.253906 89.433594 30.585938 87.546875 29.339844 C 85.675781 28.09375 83.402344 27.46875 80.734375 27.46875 Z M 107.144531 65.605469 C 107.566406 60.429688 108.019531 52.695313 108.484375 42.390625 C 108.96875 32.097656 109.203125 24.351563 109.203125 19.144531 C 111.792969 19.207031 113.898438 19.238281 115.503906 19.238281 C 117.359375 19.238281 119.371094 19.207031 121.535156 19.144531 L 121.195313 26.503906 C 122.160156 25.070313 123.050781 23.914063 123.859375 23.011719 C 124.671875 22.105469 125.699219 21.28125 126.992188 20.515625 C 128.273438 19.75 129.769531 19.160156 131.484375 18.707031 C 133.199219 18.269531 134.976563 18.050781 136.800781 18.050781 C 138.171875 18.050781 139.496094 18.175781 140.777344 18.441406 C 142.054688 18.707031 143.226563 19.066406 144.269531 19.53125 C 145.328125 20.015625 146.21875 20.546875 146.96875 21.15625 C 147.714844 21.761719 148.339844 22.449219 148.867188 23.199219 C 149.382813 23.929688 149.945313 25.035156 150.554688 26.503906 C 151.222656 25.441406 151.832031 24.554688 152.40625 23.835938 C 152.96875 23.117188 153.71875 22.371094 154.667969 21.621094 C 155.605469 20.859375 156.648438 20.21875 157.816406 19.6875 C 158.972656 19.175781 160.265625 18.769531 161.714844 18.488281 C 163.164063 18.191406 164.664063 18.050781 166.222656 18.050781 C 168.855469 18.050781 171.351563 18.488281 173.707031 19.347656 C 176.046875 20.21875 177.882813 21.589844 179.226563 23.460938 C 180.566406 25.332031 181.238281 27.65625 181.238281 30.429688 C 181.238281 31.898438 181.128906 34.035156 180.910156 36.871094 C 180.707031 39.707031 180.441406 44.324219 180.128906 50.730469 C 179.835938 57.140625 179.660156 62.097656 179.632813 65.605469 C 177.414063 65.542969 175.453125 65.511719 173.738281 65.511719 C 171.726563 65.511719 169.371094 65.542969 166.660156 65.605469 C 166.9375 61.675781 167.1875 57.5625 167.4375 53.273438 L 167.984375 42.8125 C 168.140625 40.160156 168.21875 37.914063 168.21875 36.089844 C 168.21875 33.921875 167.875 32.269531 167.1875 31.164063 C 166.503906 30.042969 165.628906 29.246094 164.585938 28.777344 C 163.523438 28.296875 162.355469 28.0625 161.046875 28.0625 C 159.675781 28.0625 158.425781 28.328125 157.320313 28.839844 C 156.210938 29.355469 155.167969 30.199219 154.21875 31.367188 C 153.25 32.519531 152.515625 33.878906 152.003906 35.421875 C 151.488281 36.964844 151.097656 39.132813 150.863281 41.921875 C 150.613281 44.714844 150.410156 48.359375 150.273438 52.898438 L 149.945313 65.605469 C 147.417969 65.542969 145.3125 65.511719 143.644531 65.511719 C 141.960938 65.511719 139.730469 65.542969 136.925781 65.605469 C 137.144531 63.265625 137.441406 58.464844 137.84375 51.214844 C 138.234375 43.964844 138.4375 39.085938 138.4375 36.558594 C 138.4375 35.21875 138.328125 34.078125 138.109375 33.160156 C 137.90625 32.222656 137.472656 31.335938 136.816406 30.507813 C 136.160156 29.667969 135.398438 29.042969 134.507813 28.652344 C 133.636719 28.265625 132.605469 28.0625 131.453125 28.0625 C 129.332031 28.0625 127.460938 28.761719 125.839844 30.167969 C 124.234375 31.570313 123.050781 33.441406 122.316406 35.78125 C 121.566406 38.117188 121.039063 42.6875 120.695313 49.453125 C 120.367188 56.234375 120.210938 61.613281 120.210938 65.605469 C 117.40625 65.542969 115.285156 65.511719 113.867188 65.511719 C 112.246094 65.511719 110.015625 65.542969 107.144531 65.605469 Z M 185.851563 65.605469 L 186.394531 58.074219 L 187.769531 28.375 L 182.109375 28.375 C 182.203125 27.453125 182.296875 25.972656 182.40625 23.914063 C 182.515625 21.871094 182.578125 20.375 182.609375 19.421875 L 188.8125 19.421875 L 188.8125 17.597656 C 188.8125 14.339844 188.953125 11.847656 189.21875 10.132813 C 189.5 8.402344 190.015625 6.996094 190.761719 5.90625 C 191.496094 4.796875 192.554688 3.847656 193.910156 3.035156 C 195.269531 2.242188 196.75 1.679688 198.355469 1.402344 C 199.976563 1.105469 201.628906 0.964844 203.34375 0.964844 C 206.820313 0.964844 210.484375 1.445313 214.351563 2.429688 C 214.445313 5.84375 214.601563 8.773438 214.851563 11.207031 C 211.9375 10.164063 209.269531 9.648438 206.867188 9.648438 C 205.917969 9.648438 205.042969 9.757813 204.265625 9.992188 C 203.46875 10.226563 202.816406 10.535156 202.316406 10.925781 C 201.816406 11.316406 201.394531 11.847656 201.070313 12.484375 C 200.726563 13.125 200.507813 13.875 200.382813 14.746094 C 200.257813 15.605469 200.195313 16.601563 200.195313 17.738281 L 200.195313 19.421875 L 211.84375 19.421875 C 211.65625 21.527344 211.484375 24.507813 211.296875 28.375 L 200.335938 28.375 C 199.757813 40.488281 199.304688 52.898438 199.011719 65.605469 C 196.234375 65.542969 194.019531 65.511719 192.382813 65.511719 C 190.699219 65.511719 188.53125 65.542969 185.851563 65.605469 Z M 234.855469 18.050781 C 238.347656 18.050781 241.699219 18.582031 244.910156 19.625 C 248.136719 20.671875 250.851563 22.230469 253.097656 24.289063 C 255.324219 26.347656 257.011719 28.855469 258.148438 31.820313 C 259.269531 34.796875 259.832031 37.914063 259.832031 41.207031 C 259.832031 44.683594 259.238281 48.035156 258.054688 51.261719 C 256.871094 54.488281 255.140625 57.28125 252.894531 59.632813 C 250.632813 62.003906 247.824219 63.765625 244.460938 64.9375 C 241.089844 66.105469 237.503906 66.695313 233.699219 66.695313 C 230.175781 66.695313 226.808594 66.167969 223.628906 65.121094 C 220.449219 64.078125 217.734375 62.488281 215.472656 60.398438 C 213.230469 58.292969 211.515625 55.738281 210.34375 52.726563 C 209.175781 49.703125 208.582031 46.550781 208.582031 43.261719 C 208.582031 39.910156 209.113281 36.714844 210.1875 33.675781 C 211.25 30.632813 212.917969 27.921875 215.179688 25.535156 C 217.453125 23.164063 220.355469 21.324219 223.878906 20.015625 C 227.417969 18.707031 231.066406 18.050781 234.855469 18.050781 Z M 234.855469 27.46875 C 232.203125 27.46875 229.835938 28.109375 227.742188 29.402344 C 225.65625 30.695313 224.109375 32.628906 223.082031 35.1875 C 222.070313 37.742188 221.554688 40.535156 221.554688 43.542969 C 221.554688 46.195313 221.976563 48.546875 222.816406 50.621094 C 223.644531 52.695313 225.015625 54.363281 226.917969 55.644531 C 228.820313 56.921875 231.082031 57.5625 233.699219 57.5625 C 236.382813 57.5625 238.734375 56.90625 240.765625 55.582031 C 242.789063 54.253906 244.300781 52.304688 245.332031 49.734375 C 246.34375 47.160156 246.859375 44.324219 246.859375 41.21875 C 246.859375 38.679688 246.46875 36.386719 245.675781 34.3125 C 244.878906 32.253906 243.554688 30.585938 241.667969 29.339844 C 239.796875 28.09375 237.519531 27.46875 234.855469 27.46875 Z M 261.125 65.605469 L 262.449219 43.902344 L 262.808594 31.289063 C 262.871094 28.699219 262.902344 26.097656 262.902344 23.476563 C 262.902344 23.027344 262.871094 21.574219 262.808594 19.144531 C 265.644531 19.207031 267.722656 19.238281 269.0625 19.238281 C 270.621094 19.238281 272.679688 19.207031 275.234375 19.144531 L 275.003906 25.582031 C 276.15625 23.945313 277.152344 22.714844 277.980469 21.917969 C 278.789063 21.109375 279.726563 20.40625 280.738281 19.828125 C 281.769531 19.253906 282.890625 18.816406 284.136719 18.503906 C 285.402344 18.207031 286.679688 18.050781 287.988281 18.050781 C 289.203125 18.050781 290.453125 18.207031 291.730469 18.503906 C 291.730469 21.339844 291.871094 24.929688 292.136719 29.277344 C 290.34375 28.792969 288.707031 28.5625 287.257813 28.5625 C 285.480469 28.5625 283.921875 28.824219 282.5625 29.355469 C 281.207031 29.886719 279.992188 30.695313 278.914063 31.789063 C 277.824219 32.863281 276.933594 34.1875 276.234375 35.78125 C 275.65625 37.058594 275.234375 38.710938 274.953125 40.753906 C 274.722656 42.34375 274.519531 45.054688 274.347656 48.890625 C 274.191406 52.726563 274.113281 56.5 274.113281 60.210938 C 274.113281 61.644531 274.144531 63.4375 274.238281 65.605469 C 271.929688 65.542969 269.808594 65.511719 267.890625 65.511719 C 266.003906 65.511719 263.746094 65.542969 261.125 65.605469 Z M 319.515625 56.046875 C 319.15625 57.714844 318.578125 60.835938 317.785156 65.371094 C 315.226563 65.949219 313.214844 66.324219 311.75 66.464844 C 310.285156 66.621094 308.929688 66.695313 307.632813 66.695313 C 305.390625 66.695313 303.378906 66.480469 301.585938 66.058594 C 299.808594 65.636719 298.339844 64.875 297.171875 63.796875 C 296.019531 62.722656 295.238281 61.457031 294.832031 60.007813 C 294.410156 58.558594 294.210938 57.0625 294.210938 55.503906 C 294.210938 55.113281 294.226563 54.582031 294.257813 53.914063 C 294.289063 53.242188 294.410156 51.074219 294.613281 47.425781 L 295.675781 28.421875 L 289.09375 28.421875 C 289.253906 26.597656 289.390625 23.664063 289.5 19.609375 L 296.40625 19.609375 C 296.578125 17.847656 296.765625 14.839844 296.953125 10.613281 L 302.332031 9.570313 C 303.472656 9.351563 305.636719 8.851563 308.867188 8.058594 C 308.648438 12.175781 308.523438 16.023438 308.492188 19.609375 L 320.105469 19.609375 C 319.890625 23.710938 319.796875 26.65625 319.796875 28.421875 L 308.148438 28.421875 C 307.507813 40.816406 307.183594 47.988281 307.183594 49.9375 C 307.183594 51.824219 307.382813 53.289063 307.804688 54.316406 C 308.210938 55.363281 308.882813 56.109375 309.785156 56.5625 C 310.703125 57.015625 311.671875 57.25 312.71875 57.25 C 313.464844 57.25 314.277344 57.1875 315.101563 57.0625 C 315.945313 56.9375 317.410156 56.609375 319.515625 56.046875 "/>
<path style=" stroke:none;fill-rule:nonzero;fill:rgb(0%,68.199158%,93.699646%);fill-opacity:1;" d="M 322.585938 64.640625 C 322.179688 58.152344 321.726563 52.960938 321.210938 49.0625 C 324.625 50.589844 327.664063 51.652344 330.332031 52.242188 C 332.984375 52.835938 335.320313 53.132813 337.332031 53.132813 C 339.984375 53.132813 342.105469 52.742188 343.664063 51.964844 C 345.238281 51.199219 346.019531 50.046875 346.019531 48.515625 C 346.019531 48.003906 345.9375 47.503906 345.785156 47.035156 C 345.644531 46.570313 345.347656 46.039063 344.925781 45.429688 C 344.488281 44.839844 343.882813 44.199219 343.101563 43.496094 L 334.511719 36.011719 C 332.5 34.296875 331.097656 33.066406 330.300781 32.300781 C 328.695313 30.757813 327.433594 29.308594 326.542969 27.96875 C 325.640625 26.628906 324.984375 25.269531 324.578125 23.882813 C 324.160156 22.496094 323.953125 21.03125 323.953125 19.46875 C 323.953125 17.613281 324.28125 15.789063 324.9375 14.015625 C 325.59375 12.234375 326.574219 10.570313 327.886719 9.007813 C 329.195313 7.464844 330.925781 6.125 333.09375 4.984375 C 335.242188 3.863281 337.566406 3.097656 340.03125 2.695313 C 342.492188 2.273438 345.035156 2.070313 347.65625 2.070313 C 352.800781 2.070313 358.398438 2.664063 364.464844 3.847656 C 364.554688 5.953125 364.664063 7.871094 364.773438 9.632813 C 364.898438 11.378906 365.195313 14.449219 365.648438 18.832031 C 362.839844 17.710938 360.300781 16.929688 357.976563 16.476563 C 355.667969 16.039063 353.671875 15.824219 352.003906 15.824219 C 349.636719 15.824219 347.65625 16.257813 346.097656 17.148438 C 344.519531 18.019531 343.742188 19.128906 343.742188 20.4375 C 343.742188 21.046875 343.867188 21.636719 344.101563 22.214844 C 344.347656 22.792969 344.800781 23.460938 345.472656 24.242188 C 346.144531 25.019531 347.03125 25.878906 348.121094 26.796875 C 349.214844 27.734375 350.945313 29.105469 353.28125 30.929688 L 356.574219 33.535156 C 357.539063 34.328125 358.585938 35.296875 359.722656 36.417969 C 360.84375 37.542969 361.8125 38.648438 362.636719 39.753906 C 363.464844 40.847656 364.089844 41.859375 364.539063 42.765625 C 364.976563 43.683594 365.304688 44.605469 365.523438 45.523438 C 365.726563 46.460938 365.835938 47.457031 365.835938 48.515625 C 365.835938 51.261719 365.179688 53.867188 363.871094 56.359375 C 362.558594 58.839844 360.703125 60.882813 358.304688 62.472656 C 355.886719 64.078125 353.253906 65.183594 350.367188 65.824219 C 347.5 66.464844 344.457031 66.789063 341.261719 66.789063 C 336.335938 66.789063 330.097656 66.074219 322.585938 64.640625 Z M 403.101563 52.179688 C 402.558594 54.738281 402.089844 57.234375 401.683594 59.664063 L 400.6875 65.230469 C 397.675781 65.902344 395.324219 66.339844 393.621094 66.507813 C 391.9375 66.695313 390.300781 66.789063 388.710938 66.789063 C 386.121094 66.789063 383.832031 66.570313 381.820313 66.136719 C 379.808594 65.683594 378.140625 64.875 376.800781 63.703125 C 375.460938 62.535156 374.539063 61.195313 374.054688 59.664063 C 373.570313 58.136719 373.324219 56.53125 373.324219 54.832031 C 373.324219 54.519531 373.339844 53.972656 373.371094 53.210938 C 373.402344 52.429688 373.511719 50.699219 373.683594 48.019531 L 374.695313 32.222656 L 367.570313 32.222656 C 367.726563 30.121094 367.867188 27.34375 367.976563 23.914063 L 368.113281 19.65625 L 375.691406 19.65625 C 375.878906 18.253906 376.113281 15.199219 376.378906 10.472656 L 384.191406 8.882813 C 385.625 8.601563 388.664063 7.902344 393.328125 6.78125 C 393.109375 10.769531 392.96875 15.058594 392.875 19.65625 L 403.289063 19.65625 C 403.039063 25.988281 402.929688 30.183594 402.929688 32.222656 L 392.421875 32.222656 L 391.878906 43.636719 C 391.8125 45.335938 391.78125 46.445313 391.78125 46.925781 C 391.78125 48.394531 391.9375 49.609375 392.25 50.574219 C 392.578125 51.558594 393.140625 52.261719 393.949219 52.679688 C 394.761719 53.101563 395.648438 53.320313 396.617188 53.320313 C 397.351563 53.320313 398.113281 53.273438 398.910156 53.164063 C 399.6875 53.054688 401.089844 52.726563 403.101563 52.179688 Z M 408.097656 32.269531 C 408.671875 29.261719 409.046875 27.171875 409.1875 26.035156 C 409.34375 24.898438 409.59375 23.101563 409.921875 20.671875 C 418.699219 18.753906 426.230469 17.785156 432.542969 17.785156 C 436.128906 17.785156 439.421875 18.191406 442.414063 19.003906 C 445.390625 19.796875 447.730469 21.109375 449.398438 22.902344 C 451.082031 24.695313 451.90625 27.265625 451.90625 30.617188 C 451.90625 32.332031 451.691406 36.167969 451.222656 42.125 C 450.769531 48.097656 450.410156 55.921875 450.179688 65.605469 C 447.183594 65.542969 444.222656 65.511719 441.257813 65.511719 C 438.390625 65.511719 435.351563 65.542969 432.121094 65.605469 C 432.558594 62.253906 433.042969 55.347656 433.574219 44.867188 C 432.417969 45.414063 431.5 45.804688 430.84375 46.054688 C 430.1875 46.304688 429.035156 46.664063 427.398438 47.144531 C 425.746094 47.644531 424.453125 48.050781 423.53125 48.378906 C 422.597656 48.71875 421.785156 49.140625 421.101563 49.65625 C 420.414063 50.1875 419.914063 50.714844 419.632813 51.261719 C 419.339844 51.808594 419.195313 52.414063 419.195313 53.085938 C 419.195313 54.113281 419.601563 55.003906 420.429688 55.738281 C 421.253906 56.46875 422.566406 56.828125 424.359375 56.828125 C 424.996094 56.828125 425.683594 56.78125 426.417969 56.671875 C 427.148438 56.5625 428.148438 56.296875 429.425781 55.859375 C 428.535156 58.214844 427.492188 61.644531 426.277344 66.152344 C 423.65625 66.570313 421.179688 66.789063 418.824219 66.789063 C 415.050781 66.789063 411.914063 66.261719 409.390625 65.214844 C 406.878906 64.171875 404.945313 62.472656 403.589844 60.117188 C 402.234375 57.78125 401.5625 55.425781 401.5625 53.085938 C 401.5625 51.652344 401.8125 50.246094 402.3125 48.890625 C 402.828125 47.519531 403.605469 46.179688 404.664063 44.867188 C 405.742188 43.558594 406.988281 42.4375 408.425781 41.5 C 409.859375 40.582031 411.808594 39.707031 414.285156 38.882813 C 416.78125 38.054688 419.914063 37.277344 423.734375 36.542969 C 425.308594 36.246094 426.773438 35.917969 428.101563 35.5625 C 429.425781 35.21875 430.359375 34.921875 430.921875 34.65625 C 431.484375 34.390625 431.949219 34.09375 432.292969 33.738281 C 432.652344 33.394531 432.902344 33.035156 433.058594 32.644531 C 433.199219 32.269531 433.277344 31.867188 433.277344 31.445313 C 433.277344 30.289063 432.792969 29.402344 431.8125 28.777344 C 430.84375 28.15625 429.410156 27.84375 427.523438 27.84375 C 422.285156 27.84375 415.800781 29.324219 408.097656 32.269531 Z M 455.25 65.605469 L 456.667969 45.320313 L 457.121094 33.675781 C 457.152344 31.585938 457.167969 29.433594 457.167969 27.234375 C 457.167969 25.019531 457.136719 22.261719 457.074219 18.972656 C 460.753906 19.035156 463.683594 19.066406 465.835938 19.066406 C 468.363281 19.066406 471.277344 19.035156 474.566406 18.972656 L 474.378906 24.132813 C 475.5625 22.792969 476.53125 21.792969 477.296875 21.140625 C 478.058594 20.484375 478.933594 19.890625 479.898438 19.359375 C 480.882813 18.832031 481.894531 18.425781 482.972656 18.175781 C 484.03125 17.910156 485.136719 17.785156 486.308594 17.785156 C 487.398438 17.785156 488.613281 17.941406 489.957031 18.238281 C 489.988281 21.558594 490.066406 24.304688 490.191406 26.472656 L 490.5 33.503906 C 488.835938 33.019531 487.257813 32.769531 485.808594 32.769531 C 483.96875 32.769531 482.394531 33.035156 481.085938 33.566406 C 479.757813 34.09375 478.589844 34.90625 477.5625 35.980469 C 476.546875 37.074219 475.734375 38.414063 475.128906 40.035156 C 474.519531 41.640625 474.085938 44.199219 473.851563 47.707031 C 473.601563 51.199219 473.476563 55.207031 473.476563 59.710938 C 473.476563 61.300781 473.539063 63.265625 473.664063 65.605469 C 470.699219 65.542969 467.738281 65.511719 464.761719 65.511719 C 461.796875 65.511719 458.632813 65.542969 455.25 65.605469 "/>
<path style=" stroke:none;fill-rule:evenodd;fill:rgb(13.699341%,12.199402%,12.5%);fill-opacity:1;" d="M 505.957031 16.335938 C 507.464844 16.335938 508.878906 16.539063 510.210938 16.960938 C 511.542969 17.382813 512.699219 18.0625 513.679688 18.996094 C 514.667969 19.933594 515.371094 21 515.796875 22.203125 C 516.21875 23.402344 516.433594 24.695313 516.433594 26.074219 C 516.433594 27.558594 516.195313 28.988281 515.722656 30.351563 C 515.253906 31.714844 514.535156 32.867188 513.570313 33.808594 C 512.613281 34.75 511.410156 35.46875 509.953125 35.960938 C 508.496094 36.449219 506.96875 36.699219 505.378906 36.699219 C 503.84375 36.699219 502.371094 36.46875 500.949219 36.015625 C 499.53125 35.558594 498.351563 34.898438 497.40625 34.019531 C 496.460938 33.140625 495.773438 32.09375 495.339844 30.875 C 494.902344 29.648438 494.6875 28.363281 494.6875 27.015625 C 494.6875 25.5 494.953125 24.039063 495.492188 22.632813 C 496.023438 21.21875 496.796875 20.042969 497.800781 19.097656 C 498.808594 18.152344 500.035156 17.453125 501.472656 17.003906 C 502.910156 16.554688 504.40625 16.335938 505.957031 16.335938 Z M 505.910156 18 C 504.613281 18 503.367188 18.183594 502.183594 18.554688 C 500.992188 18.925781 499.964844 19.539063 499.101563 20.394531 C 498.230469 21.246094 497.589844 22.25 497.179688 23.402344 C 496.769531 24.558594 496.566406 25.761719 496.566406 27.015625 C 496.566406 28.183594 496.773438 29.296875 497.195313 30.363281 C 497.613281 31.433594 498.230469 32.320313 499.046875 33.027344 C 499.863281 33.738281 500.824219 34.246094 501.9375 34.5625 C 503.042969 34.875 504.21875 35.03125 505.453125 35.03125 C 506.753906 35.03125 507.984375 34.855469 509.148438 34.503906 C 510.308594 34.152344 511.304688 33.570313 512.136719 32.761719 C 512.964844 31.949219 513.570313 30.980469 513.964844 29.855469 C 514.351563 28.734375 514.550781 27.546875 514.550781 26.289063 C 514.550781 25.09375 514.371094 23.964844 514.015625 22.898438 C 513.65625 21.832031 513.085938 20.917969 512.292969 20.160156 C 511.503906 19.40625 510.554688 18.851563 509.441406 18.511719 C 508.332031 18.171875 507.15625 18 505.910156 18 Z M 501.097656 31.90625 C 501.257813 30.324219 501.382813 28.507813 501.46875 26.464844 C 501.550781 24.417969 501.589844 22.570313 501.589844 20.921875 C 502.460938 20.941406 503.042969 20.953125 503.339844 20.953125 C 503.660156 20.953125 504.074219 20.941406 504.59375 20.925781 C 505.105469 20.914063 505.597656 20.90625 506.058594 20.90625 C 506.71875 20.90625 507.300781 20.941406 507.8125 21.011719 C 508.320313 21.074219 508.78125 21.238281 509.1875 21.5 C 509.59375 21.761719 509.886719 22.074219 510.074219 22.445313 C 510.265625 22.808594 510.355469 23.226563 510.355469 23.703125 C 510.355469 24.492188 510.125 25.167969 509.660156 25.730469 C 509.199219 26.300781 508.429688 26.707031 507.363281 26.957031 C 507.640625 27.527344 508.09375 28.335938 508.71875 29.386719 C 509.339844 30.441406 509.828125 31.277344 510.175781 31.90625 C 509.558594 31.898438 509.058594 31.890625 508.671875 31.890625 C 508.316406 31.890625 507.839844 31.898438 507.246094 31.90625 L 506.433594 30.023438 C 506.386719 29.921875 506.28125 29.703125 506.125 29.382813 C 505.964844 29.054688 505.671875 28.488281 505.234375 27.664063 L 504.222656 25.699219 C 504.722656 25.78125 505.128906 25.828125 505.4375 25.828125 C 505.902344 25.828125 506.3125 25.753906 506.683594 25.609375 C 507.046875 25.464844 507.324219 25.25 507.511719 24.957031 C 507.699219 24.671875 507.792969 24.359375 507.792969 24.035156 C 507.792969 23.78125 507.738281 23.570313 507.636719 23.398438 C 507.527344 23.222656 507.378906 23.085938 507.1875 22.980469 C 506.992188 22.882813 506.753906 22.8125 506.464844 22.777344 C 506.175781 22.746094 505.773438 22.730469 505.265625 22.730469 C 504.972656 22.730469 504.578125 22.738281 504.078125 22.757813 C 504.019531 23.859375 503.960938 25.425781 503.898438 27.460938 C 503.832031 29.5 503.804688 30.976563 503.804688 31.90625 C 503.21875 31.898438 502.765625 31.890625 502.425781 31.890625 C 502.058594 31.890625 501.613281 31.898438 501.097656 31.90625 "/>
</g>
</svg>
