<svg xmlns="http://www.w3.org/2000/svg" viewBox="0 0 1920 1080"><path fill="#00a293" d="M298.79 536.5H171.9a1 .99-87.8 0 0-.99.92l-9.7 124.38a1.01 1-87.5 0 1-1 .92l-87.98.02a1 1 0 0 1-1-1.07q10.99-140.57 21.72-278.3c.12-1.57.01-4.14.6-5.98a1.01.99-80.4 0 1 .96-.7q33.53.42 66.34.32c12.59-.03 22.03 5.58 20.94 19.75q-3.05 39.45-6.06 78.91a1.01 1-87.9 0 0 1 1.08h126.69a1 1 0 0 0 .99-.89q1.55-14.04 2.56-27.83 2.57-35.08 5.22-70.15a1 .99-87.8 0 1 .99-.92l87.3-.03a1 1 0 0 1 1 .97q.1 3.6.03 4.6-10.99 139.66-21.7 279.33a1.02 1-87.5 0 1-1 .93l-87.6-.03a1 .99 1.9 0 1-1-1.06c2.58-41.27 6.36-82.65 9.57-124.09a1 .99-87.6 0 0-.99-1.08Zm207.7-159.32c7.82.01 14.61 3.52 15.88 11.78q.3 1.99-.12 8.53-1.04 15.89-2.19 33.08a1.01 1-87.8 0 1-1 .93h-86.01a1.01 1-87.9 0 1-1-1.08l4.02-52.7a1 .99 2.4 0 1 1.01-.92q34.33.32 69.41.38Zm247.32 193.01c11.4 9.8 18.89 20.13 18.97 35.33.21 38.56-41.47 51.53-72.36 55.55q-34.22 4.46-68.65 2.88c-32.59-1.49-64.75-3.1-97.16-7.15a.99.99 0 0 1-.87-1.06q.64-9.35 1.13-18.69.67-12.77 1.83-25.51a1 .99-82.8 0 1 1.15-.9q28.39 4.51 56.89 7.6 11.74 1.28 23.51 1.73.74.03 1.37.38.21.12.46.13c15.61.49 31.98 1.25 47.4-1.43 4.79-.84 9.56-3.06 9.4-8.63-.24-8.55-20.6-14.93-27.9-17.81q-24.17-9.53-48.26-19.28c-27.94-11.3-66.98-30.82-62.76-67.31 6.85-59.37 114.66-57.06 154.46-54.97q38.98 2.06 77.39 9.11a1.01 1 8.1 0 1 .82 1.08l-4.02 41.31a1 1 0 0 1-1.24.87q-4.08-1.02-7.86-1.7-27.37-4.84-55.04-7.21c-14.76-1.26-29.47-1.37-44.22-1.02-5.57.13-34.14.78-27.52 13.7 2.34 4.57 12.03 9.48 16.34 11.26 32.23 13.31 65.87 26.56 95.15 43.05q4.3 2.42 11.59 8.69Zm647.59 2.96c-27.52-11.12-67.37-31.34-62.15-67.94 10.08-70.67 161.78-55.63 207.07-49.05q4.21.61 24.31 3.8a1 1 0 0 1 .84.95q.13 3.49.03 4.34-2.05 18.4-3.56 37.14a1 1 0 0 1-1.19.9c-36.05-7.06-71.95-10.72-108.75-9.74-5.81.15-32.1 1.25-26.27 13.13 2.62 5.32 12.02 9.93 17.44 12.16 26.03 10.7 52.35 21.23 77.67 33.53 18.81 9.13 42.31 23.57 46.3 45.85 7.67 42.88-38.16 58.27-71.28 62.8q-30.12 4.12-60.61 3.1c-34.5-1.14-59.43-2.36-89.07-5.26q-8.16-.79-16.24-2.22a1 1 0 0 1-.81-.81c-.4-2.32.25-4.98.33-6.63q.96-18.53 2.38-37.64a1.01 1.01 0 0 1 1.16-.92q22.16 3.62 44.74 6.15 23.15 2.6 36 3.21c2.58.12 5.44.74 8.01.75 9.51.02 42.48 2.18 48.59-5.41 9.21-11.46-18.75-19.82-26.57-22.9q-24.22-9.54-48.37-19.29ZM931.75 450.99c53.36.32 110.99 28.49 116.46 88.04q1.71 18.61-1.49 35.45a1 .99 5.2 0 1-.98.81l-177.28.13a1 1 0 0 0-1 1.1c4.23 40.79 57.15 47.48 88.06 46.38q41.58-1.48 82.28-9.96a1 1 0 0 1 1.19 1.13l-6.49 40.82a.99.99 0 0 1-.74.81c-34.24 8.73-68.54 11.49-104.69 10.96q-35.61-.51-68.31-9.2-19.13-5.08-36.52-16.96c-21.27-14.52-33.05-35.09-36.25-60.29-6.83-53.71 29.47-100.34 78.34-118.11 21.74-7.9 44.36-11.25 67.42-11.11Zm30.46 51.57c-12.13-10.37-30.24-12.19-45.49-9.74q-36.84 5.92-45.61 42.2a1 .99 6.8 0 0 .97 1.23h103.43a1 1 0 0 0 1-.97q.64-19.93-14.3-32.72Zm709.54 157.69c-36.68-7.01-71.15-27.71-81.56-65.8q-7.92-29.01.03-55.72c10.55-35.41 40.87-64.63 75.09-76.67 47.36-16.67 108.31-16.89 149.97 15.06 31.54 24.2 38.57 59.27 32.75 97.32a1 1 0 0 1-.99.85l-177.49.12a1 1 0 0 0-.99 1.13c6.66 50.57 78.94 48.03 113.95 44.84q28.85-2.63 56.53-8.49a1 1 0 0 1 1.2 1.13l-6.37 40.05q-.35 2.2-2.46 2.16c-1.79-.03-4.34 1.04-5.87 1.38-33.41 7.45-67.71 10.07-101.86 8.92q-23.12-.78-51.93-6.28Zm1.57-124.02 103.43.04a1 1 0 0 0 1-.95q.33-6.59-1.58-13.08-6.26-21.27-27.54-27.49-18.47-5.4-35.4-1.28-33.18 8.1-40.88 41.54a1 1 0 0 0 .97 1.22Zm-528.27 127.28-80.18.01a1 1 0 0 1-1-.98q-.06-2.94.39-10.04 5.98-94.13 12.12-188.82a1 1 0 0 1 .88-.93c41.33-4.68 82.94-8.27 124.49-9.22q26.94-.62 53.75 1.95c42.58 4.08 66.3 23.04 63.54 68.51q-4.22 69.28-8.58 138.56a1.01 1 1.5 0 1-1 .94l-79.96.04a1 1 0 0 1-1-1.01q.04-3.33.28-7.02 4.03-61.65 7.97-123.31c1.19-18.65-.42-29.57-19.99-33.74q-7.71-1.64-23.02-1.01-18.82.78-37.08 3.22a1 .99 87.6 0 0-.86.94c-.91 17.77-2.07 34.85-3.12 51.99q-3.35 54.8-6.63 108.98a1 1 0 0 1-1 .94Zm-644.16-.8-86 .06a1.01 1-87.9 0 1-1-1.08q7.68-100.69 15.36-199.94.33-4.24.64-6.16a1.01 1-85.3 0 1 .99-.84h85.8a1 .99-87.6 0 1 .99 1.08l-15.78 205.96a1 1 0 0 1-1 .92Z"/></svg>