<?xml version="1.0" encoding="UTF-8"?>
<!-- Generator: https://ezgif.com/png-to-svg -->
<svg version="1.1" xmlns="http://www.w3.org/2000/svg" width="1024" height="208">
<path d="M0 0 C4.61 3.12 8.16 6.37 12.14 10.35 C12.47 5.07 12.8 -0.21 13.14 -5.65 C33.27 -5.65 53.4 -5.65 74.14 -5.65 C74.14 37.25 74.14 80.15 74.14 124.35 C55.66 124.35 37.18 124.35 18.14 124.35 C17.81 119.07 17.48 113.79 17.14 108.35 C15.72 109.57 14.3 110.79 12.83 112.04 C1.93 120.75 -9.45 123.71 -23.17 123.66 C-24.14 123.68 -25.11 123.7 -26.1 123.71 C-39.74 123.72 -50.69 119.48 -60.61 110.1 C-64.88 105.61 -68.01 100.84 -70.86 95.35 C-71.23 94.63 -71.61 93.92 -72 93.18 C-80.58 75.55 -80.69 53.61 -75.17 35.1 C-71.33 24.59 -64.63 16.26 -56.86 8.35 C-56.29 7.78 -55.73 7.2 -55.15 6.61 C-40.37 -7.23 -17.53 -10.12 0 0 Z M-14.61 47.23 C-18.5 52.63 -19.61 57.74 -18.86 64.35 C-17.49 71.4 -13.52 75.2 -7.86 79.35 C-4.37 81.09 -0.66 80.8 3.14 80.35 C7.97 78.62 11.51 75.72 14.14 71.35 C14.76 67.7 14.75 64.11 14.71 60.41 C14.73 59.44 14.75 58.46 14.78 57.46 C14.77 52.88 14.74 49.43 11.78 45.78 C6.95 41.33 2.81 39.75 -3.68 40 C-8.56 40.78 -11.32 43.79 -14.61 47.23 Z " fill="#0F5C5E" transform="translate(740.85546875,83.6484375)"/>
<path d="M0 0 C12.1 -0.64 25.31 3.17 34.8 10.68 C43.4 18.47 46.72 27.92 47.92 39.19 C48.27 46.35 48.16 53.53 48.12 60.7 C48.11 62.77 48.11 64.84 48.11 66.91 C48.1 72.31 48.08 77.72 48.06 83.12 C48.04 89.63 48.03 96.13 48.01 102.64 C47.99 112.49 47.96 122.34 47.92 132.19 C28.12 132.19 8.32 132.19 -12.08 132.19 C-12.13 124.28 -12.13 124.28 -12.19 116.21 C-12.22 112.87 -12.25 109.52 -12.29 106.18 C-12.34 100.87 -12.39 95.56 -12.42 90.26 C-12.45 85.98 -12.49 81.7 -12.54 77.42 C-12.56 75.79 -12.57 74.16 -12.58 72.53 C-12.59 70.24 -12.61 67.95 -12.65 65.66 C-12.66 64.36 -12.67 63.06 -12.68 61.72 C-13.2 57.09 -14.65 53.72 -17.83 50.31 C-21.64 48.41 -25.27 48.73 -29.33 49.75 C-33 52.77 -33.98 57.31 -34.48 61.84 C-34.49 63.14 -34.5 64.44 -34.51 65.78 C-34.52 66.5 -34.53 67.22 -34.54 67.97 C-34.57 70.33 -34.58 72.69 -34.59 75.06 C-34.61 76.71 -34.62 78.36 -34.64 80.01 C-34.69 84.33 -34.72 88.65 -34.75 92.97 C-34.78 98.17 -34.84 103.36 -34.89 108.56 C-34.97 116.43 -35.02 124.31 -35.08 132.19 C-54.88 132.19 -74.68 132.19 -95.08 132.19 C-95.08 88.96 -95.08 45.73 -95.08 1.19 C-75.28 1.19 -55.48 1.19 -35.08 1.19 C-34.58 10.1 -34.58 10.1 -34.08 19.19 C-32.76 17.21 -31.44 15.23 -30.08 13.19 C-23.6 5.72 -14.87 2.46 -5.39 0.38 C-3.59 0.27 -1.79 0.16 0 0 Z " fill="#0F5C5E" transform="translate(326.078125,75.8125)"/>
<path d="M0 0 C12.76 -0.58 25.38 3.37 35.32 11.34 C41.31 16.89 46.56 25.01 47.25 33.31 C47.32 35.91 47.32 38.5 47.3 41.1 C47.3 42.09 47.3 43.08 47.3 44.09 C47.3 47.34 47.29 50.59 47.27 53.83 C47.27 56.09 47.26 58.34 47.26 60.6 C47.25 66.53 47.23 72.46 47.21 78.38 C47.19 85.5 47.18 92.62 47.17 99.74 C47.15 110.54 47.11 121.35 47.07 132.15 C27.6 132.15 8.13 132.15 -11.93 132.15 C-11.96 126.96 -12 121.78 -12.04 116.43 C-12.07 113.13 -12.1 109.84 -12.13 106.54 C-12.19 101.32 -12.24 96.09 -12.27 90.87 C-12.3 86.65 -12.34 82.44 -12.39 78.23 C-12.41 76.62 -12.42 75.02 -12.42 73.41 C-12.43 71.16 -12.46 68.9 -12.49 66.65 C-12.5 65.37 -12.52 64.09 -12.53 62.77 C-13.06 57.94 -14.37 53.94 -17.61 50.21 C-21.04 48.64 -24.27 48.48 -27.93 49.15 C-31.37 51.28 -32.64 52.3 -33.93 56.15 C-34.05 58.6 -34.11 61.02 -34.13 63.47 C-34.14 64.21 -34.15 64.95 -34.16 65.72 C-34.19 68.17 -34.22 70.62 -34.24 73.07 C-34.26 74.77 -34.28 76.47 -34.31 78.17 C-34.36 82.64 -34.41 87.12 -34.46 91.59 C-34.52 96.96 -34.58 102.32 -34.65 107.69 C-34.75 115.84 -34.84 124 -34.93 132.15 C-54.73 132.15 -74.53 132.15 -94.93 132.15 C-94.93 88.92 -94.93 45.69 -94.93 1.15 C-75.13 1.15 -55.33 1.15 -34.93 1.15 C-34.43 10.06 -34.43 10.06 -33.93 19.15 C-32.61 17.17 -31.29 15.19 -29.93 13.15 C-23.44 5.67 -14.68 2.4 -5.18 0.34 C-3.45 0.24 -1.72 0.14 0 0 Z " fill="#0F5C5E" transform="translate(177.92578125,75.84765625)"/>
<path d="M0 0 C1.72 1.62 3.39 3.27 5 5 C5.93 5.7 6.86 6.4 7.81 7.12 C17.79 15.39 24.87 29.34 27 42 C28.58 60.47 26.75 78.42 14.45 93.14 C2.08 107.33 -14.64 117.68 -33.76 119.22 C-55.89 120.37 -75.38 116.27 -92.54 101.3 C-106.27 88.46 -113.36 72.82 -114 54.02 C-114.24 35.43 -106.56 20.48 -93.94 7.38 C-69.37 -17.1 -28.5 -18.71 0 0 Z M-56.36 42.79 C-59.48 48.11 -60.63 52.88 -60 59 C-57.99 64.92 -55.52 69.34 -50.25 72.81 C-45.49 74.55 -41.59 75.03 -36.89 73.16 C-31.73 70.28 -27.99 66.62 -26 61 C-25.1 54.39 -25.25 48.63 -29 43 C-29.66 43 -30.32 43 -31 43 C-31.21 42.4 -31.41 41.8 -31.62 41.19 C-33.6 38.04 -35.53 37.28 -39 36 C-46.13 35.08 -51.86 36.87 -56.36 42.79 Z " fill="#0F5C5E" transform="translate(494,89)"/>
<path d="M0 0 C21.45 0 42.9 0 65 0 C70.56 16.81 70.56 16.81 72.27 21.98 C75.94 33.08 79.9 44.06 84 55 C84.22 54.34 84.45 53.68 84.68 53 C86.78 46.79 88.88 40.58 90.99 34.37 C92.07 31.18 93.15 27.99 94.23 24.79 C95.48 21.13 96.72 17.46 97.96 13.79 C98.35 12.64 98.74 11.49 99.14 10.31 C99.68 8.72 99.68 8.72 100.23 7.09 C100.71 5.69 100.71 5.69 101.2 4.25 C102 2 102 2 103 0 C124.12 0 145.24 0 167 0 C165.23 5.3 163.6 10.17 161.39 15.21 C160.89 16.35 160.39 17.5 159.88 18.68 C159.61 19.28 159.35 19.88 159.08 20.5 C157.62 23.81 156.17 27.13 154.73 30.45 C154.42 31.15 154.12 31.84 153.8 32.56 C150.69 39.7 147.62 46.85 144.56 54.01 C143.62 56.19 142.69 58.38 141.75 60.56 C138.8 67.45 135.86 74.33 132.92 81.23 C131.57 84.41 130.21 87.59 128.85 90.77 C128.21 92.27 127.57 93.78 126.93 95.29 C123.52 103.32 120 111.24 116 119 C114.35 122.3 112.7 125.6 111 129 C92.85 129 74.7 129 56 129 C51.48 119.31 47.04 109.63 42.81 99.81 C42.25 98.52 41.7 97.23 41.14 95.93 C38.32 89.42 35.52 82.89 32.74 76.36 C32.47 75.74 32.21 75.12 31.94 74.49 C30.7 71.58 29.46 68.67 28.22 65.75 C25.79 60.05 23.28 54.41 20.64 48.81 C16.97 41.03 13.55 33.15 10.17 25.24 C9.17 22.91 8.17 20.57 7.17 18.24 C6.52 16.73 5.88 15.22 5.23 13.71 C4.79 12.68 4.79 12.68 4.33 11.63 C2.69 7.78 1.33 3.99 0 0 Z " fill="#0F5C5E" transform="translate(508,79)"/>
<path d="M0 0 C0 19.8 0 39.6 0 60 C-4 59 -4 59 -6.43 57.96 C-13.86 55.18 -21.45 56.97 -28.55 59.87 C-35.07 62.88 -37.9 65.69 -41 72 C-42.03 75.1 -42.16 77.32 -42.21 80.57 C-42.23 81.73 -42.25 82.89 -42.27 84.08 C-42.28 85.29 -42.3 86.51 -42.32 87.76 C-42.34 88.88 -42.35 90 -42.37 91.15 C-42.44 95.33 -42.5 99.51 -42.56 103.69 C-42.71 113.03 -42.85 122.37 -43 132 C-62.47 132 -81.94 132 -102 132 C-102 89.43 -102 46.86 -102 3 C-82.86 3 -63.72 3 -44 3 C-43.5 11.91 -43.5 11.91 -43 21 C-41.8 19.68 -40.61 18.36 -39.38 17 C-28.81 6.47 -14.9 0 0 0 Z " fill="#0F5C5E" transform="translate(996,76)"/>
<path d="M0 0 C20.79 0 41.58 0 63 0 C63 42.9 63 85.8 63 130 C42.21 130 21.42 130 0 130 C0 87.1 0 44.2 0 0 Z " fill="#0F5C5E" transform="translate(823,78)"/>
<path d="M0 0 C20.46 0 40.92 0 62 0 C62 43.23 62 86.46 62 131 C41.54 131 21.08 131 0 131 C0 87.77 0 44.54 0 0 Z " fill="#0F5C5E" transform="translate(13,77)"/>
<path d="M0 0 C0.88 0.84 1.77 1.68 2.68 2.54 C6.55 5.87 10.75 6.15 15.69 6.69 C17.38 6.89 19.07 7.11 20.76 7.32 C21.87 7.45 21.87 7.45 23.01 7.58 C25 8 25 8 28 10 C28.33 12.66 28.47 15.08 28.47 17.75 C28.48 18.9 28.48 18.9 28.49 20.07 C28.5 21.69 28.51 23.32 28.5 24.94 C28.5 27.43 28.54 29.91 28.59 32.39 C28.59 33.97 28.59 35.54 28.59 37.12 C28.61 37.86 28.63 38.61 28.64 39.38 C28.62 41.48 28.62 41.48 28 45 C25.12 47.46 22.47 48.36 18.75 48.81 C17.98 48.92 17.2 49.02 16.41 49.13 C14.8 49.34 13.2 49.53 11.59 49.73 C6.54 50.44 3.86 51.48 0 55 C-9.31 59.79 -17.02 60.8 -27.08 58.09 C-29.93 57.03 -31.8 55.85 -34.19 54 C-39.03 50.39 -44.12 49.78 -49.97 49.03 C-54.36 48.44 -57.6 47.9 -61 45 C-61.46 42.15 -61.59 39.89 -61.49 37.05 C-61.48 36.28 -61.47 35.51 -61.47 34.71 C-61.44 32.24 -61.38 29.78 -61.31 27.31 C-61.29 25.64 -61.26 23.97 -61.24 22.29 C-61.19 18.2 -61.1 14.1 -61 10 C-59.37 9.27 -59.37 9.27 -57.72 8.53 C-57.11 8.26 -56.5 7.99 -55.87 7.71 C-52.99 6.62 -50.12 6.45 -47.06 6.19 C-41.27 5.47 -38.2 4.23 -33.84 0.46 C-24.61 -6.9 -9.69 -5.71 0 0 Z M-56 12 C-52.37 14.33 -49.23 14.16 -45 14 C-44.67 13.01 -44.34 12.02 -44 11 C-48.16 10.92 -51.95 11.02 -56 12 Z M11 11 C11.33 11.99 11.66 12.98 12 14 C15.3 13.67 18.6 13.34 22 13 C17.78 10.89 15.6 10.82 11 11 Z M-55 18 C-51.77 20.15 -50.72 20.2 -47 20 C-50.23 17.85 -51.28 17.8 -55 18 Z M14 20 C17.47 19.5 17.47 19.5 21 19 C21 18.67 21 18.34 21 18 C17.05 17.65 17.05 17.65 14 20 Z M-55 24 C-53.16 26.29 -53.16 26.29 -50.38 26.12 C-49.59 26.08 -48.81 26.04 -48 26 C-49.84 23.71 -49.84 23.71 -52.62 23.88 C-53.8 23.94 -53.8 23.94 -55 24 Z M17 24 C16.34 24.66 15.68 25.32 15 26 C16.98 25.67 18.96 25.34 21 25 C19.11 24.32 19.11 24.32 17 24 Z M-54 30 C-53.67 30.66 -53.34 31.32 -53 32 C-51.35 32 -49.7 32 -48 32 C-50.82 29.72 -50.82 29.72 -54 30 Z M17 30 C16.34 30.66 15.68 31.32 15 32 C16.65 32 18.3 32 20 32 C20.33 31.34 20.66 30.68 21 30 C19.68 30 18.36 30 17 30 Z M-54 36 C-54.66 36.66 -55.32 37.32 -56 38 C-52.7 38.33 -49.4 38.66 -46 39 C-46.33 38.34 -46.66 37.68 -47 37 C-50.43 36.16 -50.43 36.16 -54 36 Z M13 37 C13 37.66 13 38.32 13 39 C17.45 38.51 17.45 38.51 22 38 C21.67 37.34 21.34 36.68 21 36 C18.16 36 15.76 36.4 13 37 Z M-54 42 C-54.66 42.66 -55.32 43.32 -56 44 C-51.95 44.98 -48.16 45.08 -44 45 C-44 44.34 -44 43.68 -44 43 C-45.62 42.78 -47.25 42.57 -48.88 42.38 C-49.78 42.26 -50.68 42.14 -51.62 42.02 C-52.8 42.01 -52.8 42.01 -54 42 Z M11 43 C10.01 44.48 10.01 44.48 9 46 C15.93 45.01 15.93 45.01 23 44 C18.78 41.18 15.94 42.03 11 43 Z " fill="#AD9850" transform="translate(61,4)"/>
<path d="M0 0 C4.99 3.46 8.8 7.85 12 13 C12 13.66 12 14.32 12 15 C6.33 16.2 0.78 16.14 -4.98 16.13 C-6.03 16.13 -7.08 16.13 -8.16 16.14 C-10.37 16.14 -12.58 16.13 -14.8 16.13 C-18.19 16.13 -21.58 16.13 -24.97 16.14 C-27.12 16.14 -29.27 16.13 -31.42 16.13 C-32.43 16.13 -33.45 16.14 -34.5 16.14 C-35.44 16.14 -36.38 16.13 -37.35 16.13 C-38.18 16.13 -39 16.13 -39.86 16.13 C-42 16 -42 16 -45 15 C-44.51 10.61 -43.27 8.9 -40 6 C-38.89 4.76 -38.89 4.76 -37.75 3.5 C-27.34 -5.96 -12.13 -6.74 0 0 Z " fill="#105C5D" transform="translate(61,4)"/>
<path d="M0 0 C14.52 0 29.04 0 44 0 C38.06 5.94 31.76 9.4 23.19 10.09 C14.4 9.72 6.71 6.66 0 1 C0 0.67 0 0.34 0 0 Z " fill="#145D5D" transform="translate(22,54)"/>
<path d="M0 0 C3.49 2.38 4.96 4.02 6.75 7.88 C7.57 12.56 7.89 16.88 5.47 21.11 C2.78 24.3 0.66 26.68 -3.64 27.11 C-8.27 27.23 -11.5 27.22 -15.75 25.25 C-19.61 21.58 -21.37 18.18 -21.69 12.88 C-21.49 7.83 -18.9 4.79 -15.69 1.06 C-11.29 -2.57 -5 -1.73 0 0 Z M-16.06 6.56 C-17.81 9.96 -17.92 13.18 -17.25 16.88 C-15.18 20.27 -13.14 22.76 -9.25 23.88 C-3.95 23.68 -1.05 22.57 2.75 18.88 C4.37 15.63 4.31 12.38 3.75 8.88 C1.85 5.61 0.46 3.49 -3.19 2.18 C-8.86 1.17 -11.88 2.67 -16.06 6.56 Z " fill="#0F5C5E" transform="translate(1017.25,47.125)"/>
<path d="M0 0 C0.73 0.07 1.46 0.14 2.21 0.21 C11.02 0.99 19.75 1.15 28.59 1.13 C30.93 1.13 33.27 1.13 35.61 1.14 C44.79 1.14 53.85 0.81 63 0 C62.67 1.32 62.34 2.64 62 4 C51.8 5.03 41.67 5.15 31.42 5.13 C28.74 5.12 26.06 5.13 23.38 5.14 C21.64 5.14 19.91 5.13 18.17 5.13 C17.38 5.13 16.6 5.14 15.78 5.14 C10.46 5.12 5.29 4.66 0 4 C0 2.68 0 1.36 0 0 Z " fill="#23635C" transform="translate(13,28)"/>
<path d="M0 0 C20.79 0 41.58 0 63 0 C62.67 0.99 62.34 1.98 62 3 C55.45 3.76 49 4.15 42.41 4.13 C41.1 4.13 41.1 4.13 39.76 4.14 C37.93 4.14 36.11 4.13 34.28 4.13 C31.51 4.13 28.74 4.13 25.96 4.14 C24.17 4.14 22.38 4.13 20.59 4.13 C19.78 4.13 18.97 4.14 18.13 4.14 C12.37 4.12 6.72 3.66 1 3 C0.67 2.01 0.34 1.02 0 0 Z " fill="#22635C" transform="translate(13,35)"/>
<path d="M0 0 C0 0.66 0 1.32 0 2 C-9.88 5.29 -21.82 4.16 -32.12 4.12 C-33.39 4.13 -34.66 4.13 -35.96 4.14 C-56.77 4.12 -56.77 4.12 -61 2 C-61 1.34 -61 0.68 -61 0 C-60.44 0 -59.88 0 -59.3 0.01 C-53.39 0.03 -47.48 0.04 -41.58 0.05 C-39.38 0.06 -37.18 0.07 -34.99 0.08 C-31.81 0.09 -28.63 0.09 -25.45 0.1 C-24.49 0.1 -23.52 0.11 -22.53 0.11 C-16.44 0.11 -10.47 -0.25 -4.42 -0.88 C-2 -1 -2 -1 0 0 Z " fill="#20625C" transform="translate(75,23)"/>
<path d="M0 0 C19.8 0 39.6 0 60 0 C59.67 0.99 59.34 1.98 59 3 C53.77 3.87 48.75 4.15 43.46 4.13 C42.66 4.13 41.86 4.13 41.03 4.14 C39.34 4.14 37.64 4.13 35.95 4.13 C33.4 4.13 30.86 4.13 28.31 4.14 C19.15 4.14 10.12 3.9 1 3 C0.67 2.01 0.34 1.02 0 0 Z " fill="#1A5F5D" transform="translate(14,41)"/>
<path d="M0 0 C18.15 0 36.3 0 55 0 C53 3 53 3 50.51 3.68 C45.96 4.1 41.46 4.16 36.89 4.17 C35.45 4.17 35.45 4.17 33.98 4.18 C31.96 4.18 29.94 4.19 27.91 4.19 C24.81 4.19 21.71 4.21 18.61 4.22 C16.64 4.23 14.68 4.23 12.71 4.23 C11.78 4.24 10.85 4.24 9.89 4.25 C9.03 4.25 8.17 4.25 7.28 4.24 C6.53 4.24 5.77 4.25 4.99 4.25 C3 4 3 4 0 2 C0 1.34 0 0.68 0 0 Z " fill="#1D605D" transform="translate(17,47)"/>
<path d="M0 0 C6.05 -0.2 6.05 -0.2 8 0 C8.66 0.66 9.32 1.32 10 2 C9.9 4.1 9.49 6.06 9.09 8.12 C9.05 9.05 9.05 9.05 9 10 C9.66 10.66 10.32 11.32 11 12 C11 12.99 11 13.98 11 15 C9.12 14.81 9.12 14.81 7 14 C5.75 11.44 5.75 11.44 5 9 C4.34 9 3.68 9 3 9 C3 10.98 3 12.96 3 15 C2.01 15 1.02 15 0 15 C0 10.05 0 5.1 0 0 Z M3 2 C3 3.32 3 4.64 3 6 C4.32 5.67 5.64 5.34 7 5 C6.67 4.01 6.34 3.02 6 2 C5.01 2 4.02 2 3 2 Z " fill="#0F5C5E" transform="translate(1006,53)"/>
</svg>
