<svg width="96" height="39" viewBox="0 0 96 39" fill="none" xmlns="http://www.w3.org/2000/svg">
<path d="M45.447 32.8515H48.7645V19.0894H45.447V32.8515ZM45.7811 13.9507C45.5584 13.9507 45.4509 14.1732 45.4509 14.2807V17.2665H48.7645V14.2807C48.7645 14.1157 48.7108 13.9507 48.4343 13.9507H45.7811ZM36.4928 13.9507C36.2163 13.9507 36.1626 14.1157 36.1626 14.2807V16.9326C36.1626 20.0833 35.8323 24.7232 32.0157 29.5318L29.8577 14.392C29.804 14.1157 29.7464 13.9507 29.4162 13.9507H26.21C25.8798 13.9507 25.8798 14.1732 25.8798 14.2807C25.6571 21.63 22.2858 31.5773 14.2684 33.0702C14.5449 33.0702 14.8214 33.124 15.0978 33.124C20.1279 33.124 25.6033 29.7544 27.2045 23.2303L28.533 33.289C25.3806 34.8931 21.9517 35.6645 18.6342 35.6645C11.0008 35.6684 3.64774 31.4699 0 23.2341C2.32304 33.2928 10.6168 38.4315 18.8531 38.4315C26.9818 38.4315 34.9991 33.4041 37.1532 23.2341C37.1532 23.2341 38.6469 32.5176 38.6469 32.8515H43.124L39.9716 14.2845C39.9178 14.062 39.8602 13.9545 39.5838 13.9545H36.4928V13.9507ZM2.65325 21.7451C2.87596 10.6349 11.8302 4.11456 21.0647 4.11456C26.8704 4.11456 32.7874 6.65514 36.6579 12.2928C33.5055 4.06083 26.4289 0.357422 19.406 0.357422C10.229 0.357422 1.1596 6.76643 1.1596 17.9304C1.1596 20.4172 1.82387 23.0691 3.14858 25.3909C2.81836 24.2319 2.65325 22.9041 2.65325 21.7451ZM83.9288 22.9041L85.2573 23.403C86.1827 21.8756 87.469 21.1925 89.0164 21.1925C90.6752 21.1925 92.2226 22.244 92.2226 24.1782V24.4008C91.2281 24.1782 90.2874 24.0132 89.3466 24.0132C86.0829 24.0132 83.5947 25.6174 83.5947 29.0406C83.5947 31.5812 86.0291 33.0741 88.4597 33.0741C89.842 33.0741 91.278 32.5752 92.2188 31.5275V32.8553H95.2061V23.733C95.2061 20.7473 92.6642 18.8706 89.9533 18.8706C87.469 18.8706 84.8158 20.1946 83.9288 22.9041ZM92.2226 29.8657C91.447 30.3646 90.3411 30.6947 89.2929 30.6947C87.8568 30.6947 86.582 30.0883 86.582 28.5379C86.582 26.7687 88.0181 25.886 89.7882 25.886C90.5638 25.886 91.3932 26.051 92.2226 26.3849V29.8657ZM81.2755 26.5499C81.2755 22.0751 78.8987 18.8668 74.6942 18.8668C70.5473 18.8668 67.6714 22.0713 67.6714 25.886C67.6714 30.4184 71.3767 33.0165 74.9707 33.0165C77.5702 33.0165 80.0583 31.6886 81.1066 28.7067L79.947 28.2078C79.1176 29.4244 77.3475 30.142 75.5774 30.142C73.477 30.142 71.4305 29.0905 71.154 26.5499H81.2755ZM71.1578 24.562C71.4881 22.4627 73.0931 21.3575 74.6981 21.3575C76.3031 21.3575 77.8505 22.409 78.1269 24.562H71.1578ZM62.1998 13.9507C61.8695 13.9507 61.8695 14.1732 61.8695 14.2807V19.9183C60.6524 19.2007 59.3276 18.8668 57.9991 18.8668C54.6278 18.8668 51.4178 21.1886 51.4178 26.051C51.4178 31.0247 54.4589 33.0702 57.3886 33.0702C59.1587 33.0702 60.8712 32.295 61.8657 31.0247V32.8476H65.1832V14.2845C65.1832 14.062 65.0719 13.9545 64.853 13.9545H62.1998V13.9507ZM61.8695 28.8718C60.8751 29.7544 59.7692 30.142 58.7171 30.142C56.7281 30.142 55.0694 28.6492 55.0694 25.721C55.0694 22.7928 56.9508 21.5762 58.8861 21.5762C59.9919 21.5762 61.1515 22.0176 61.8734 22.7352V28.8718H61.8695Z" fill="#0099DA"/>
</svg>
