<?xml version="1.0" encoding="UTF-8"?>
<!-- Generator: https://ezgif.com/png-to-svg -->
<svg version="1.1" xmlns="http://www.w3.org/2000/svg" width="2000" height="413">
<path d="M0 0 C131.67 0 263.34 0 399 0 C399 131.67 399 263.34 399 399 C267.33 399 135.66 399 0 399 C0 267.33 0 135.66 0 0 Z " fill="#00549F" transform="translate(0,7)"/>
<path d="M0 0 C242.74 0 242.74 0 283 33 C283.87 33.71 284.75 34.42 285.65 35.15 C308.06 54.25 318.29 83.4 321 112 C321.35 117.87 321.34 123.75 321.31 129.62 C321.31 130.81 321.31 130.81 321.31 132.02 C321.22 153.16 318.89 173.94 309 193 C308.46 194.05 307.92 195.11 307.36 196.2 C293.66 221.95 271.2 235.99 245 247 C246.48 251.06 248.44 254.56 250.69 258.25 C251.5 259.58 252.31 260.92 253.12 262.25 C253.8 263.37 253.8 263.37 254.49 264.51 C257.45 269.39 260.38 274.29 263.31 279.19 C264.62 281.37 265.93 283.54 267.23 285.72 C269.54 289.56 271.84 293.4 274.14 297.25 C279.98 307 285.87 316.72 291.78 326.43 C298.57 337.57 305.27 348.75 311.96 359.95 C312.95 361.61 313.94 363.28 314.94 364.94 C315.42 365.75 315.91 366.56 316.4 367.39 C319.1 371.9 321.85 376.37 324.64 380.82 C325.25 381.78 325.85 382.74 326.47 383.73 C327.63 385.58 328.81 387.44 329.99 389.29 C330.51 390.12 331.04 390.96 331.58 391.82 C332.05 392.55 332.51 393.29 333 394.05 C334 396 334 396 334 399 C319.05 399.4 304.1 399.7 289.14 399.88 C282.2 399.97 275.26 400.09 268.31 400.28 C261.61 400.47 254.91 400.57 248.2 400.61 C245.65 400.64 243.09 400.71 240.54 400.8 C221.04 401.47 221.04 401.47 215.98 397.36 C212.64 393.36 210.64 388.96 208.84 384.1 C207.57 380.92 205.81 378.23 203.95 375.36 C203 373.83 203 373.83 202.04 372.28 C201.41 371.26 200.78 370.24 200.12 369.19 C195.37 361.49 190.64 353.77 186 346 C181.34 338.19 176.59 330.43 171.81 322.69 C166.94 314.79 162.1 306.88 157.35 298.91 C153.62 292.68 149.83 286.49 146.05 280.29 C145.48 279.36 144.91 278.44 144.33 277.48 C143.83 276.66 143.34 275.85 142.82 275.01 C140.2 270.68 137.6 266.34 135 262 C125.76 261.67 116.52 261.34 107 261 C107 306.54 107 352.08 107 399 C71.69 399 36.38 399 0 399 C0 267.33 0 135.66 0 0 Z M107 89 C107 118.04 107 147.08 107 177 C121.91 177.06 121.91 177.06 137.12 177.12 C140.23 177.14 143.34 177.16 146.55 177.18 C149.06 177.19 151.56 177.19 154.07 177.2 C155.34 177.21 156.6 177.22 157.91 177.23 C173.8 177.23 191.64 175.84 203.77 164.32 C212.06 155.62 214.34 144.94 215.31 133.25 C214.92 121.34 212.16 109.6 203.31 101.25 C188.76 89.55 170.14 88.83 152.21 88.9 C150.49 88.9 150.49 88.9 148.73 88.91 C144.46 88.91 140.2 88.92 135.94 88.94 C126.39 88.96 116.84 88.98 107 89 Z " fill="#000000" transform="translate(1207,7)"/>
<path d="M0 0 C3.26 0.01 6.53 -0.02 9.79 -0.05 C30.51 -0.12 50.23 3.19 69.97 9.45 C71.04 9.78 71.04 9.78 72.13 10.13 C110.93 22.52 144.76 48.34 166.97 82.45 C167.42 83.14 167.87 83.84 168.34 84.55 C187.26 113.97 196.66 148.77 198.97 183.45 C199.07 184.98 199.07 184.98 199.17 186.55 C202.78 245.11 191.49 306.24 151.72 351.38 C150.14 353.08 148.56 354.77 146.97 356.45 C146.49 356.95 146.01 357.46 145.51 357.98 C121.72 382.96 92.06 398.29 59.15 407.63 C58.34 407.87 57.52 408.11 56.68 408.35 C40.29 412.84 23.76 413.96 6.84 413.89 C3.73 413.88 0.62 413.91 -2.48 413.94 C-23.24 414.02 -43.27 410.76 -63.03 404.45 C-64.1 404.11 -64.1 404.11 -65.19 403.77 C-76.01 400.31 -86.05 395.83 -96.03 390.45 C-96.65 390.12 -97.26 389.79 -97.9 389.45 C-106.52 384.83 -114.38 379.53 -122.03 373.45 C-122.82 372.83 -122.82 372.83 -123.62 372.2 C-130.45 366.85 -130.45 366.85 -133.03 364.45 C-133.03 363.79 -133.03 363.13 -133.03 362.45 C-133.85 362.12 -133.85 362.12 -134.69 361.79 C-137.84 359.98 -140.11 357.54 -142.53 354.88 C-143.06 354.32 -143.58 353.75 -144.11 353.16 C-165.56 329.18 -178.87 299.6 -186.5 268.63 C-186.96 266.77 -187.43 264.9 -187.91 263.04 C-197.7 221.9 -195.62 174.96 -184.03 134.45 C-183.73 133.37 -183.42 132.29 -183.11 131.17 C-174.83 104.54 -161.26 79.66 -142.03 59.45 C-140.86 58.08 -139.69 56.7 -138.53 55.32 C-131.86 47.73 -124.18 41.67 -116.03 35.76 C-115.3 35.22 -114.56 34.69 -113.81 34.14 C-104.79 27.69 -95.44 22.46 -85.35 17.88 C-84.29 17.4 -83.24 16.92 -82.15 16.43 C-74.24 12.88 -66.39 9.8 -58.03 7.45 C-56.17 6.91 -56.17 6.91 -54.27 6.37 C-36.35 1.47 -18.53 -0.07 0 0 Z M-25.03 94.45 C-25.97 94.73 -26.91 95.02 -27.88 95.32 C-34.96 97.83 -40.98 102.06 -47.03 106.45 C-47.68 106.91 -48.33 107.37 -49 107.84 C-69.19 123.56 -78.37 152.2 -82.03 176.45 C-82.82 182.93 -83.19 189.34 -83.2 195.86 C-83.21 196.72 -83.21 197.58 -83.21 198.47 C-83.22 200.28 -83.22 202.09 -83.22 203.89 C-83.22 206.61 -83.24 209.33 -83.26 212.04 C-83.29 222.37 -82.79 232.25 -81.03 242.45 C-80.89 243.28 -80.75 244.12 -80.61 244.98 C-75.79 271.61 -64.73 295.98 -42.74 312.64 C-23.92 325.21 -1.47 328.93 20.65 324.86 C40.71 320.8 56.99 309.35 68.84 292.76 C80.5 274.58 85.86 254.64 88.97 233.45 C89.07 232.76 89.17 232.08 89.28 231.37 C92.92 203.79 90.92 172.43 80.97 146.45 C80.51 145.24 80.06 144.04 79.59 142.79 C74.59 130.31 67.37 120.02 57.97 110.45 C57.43 109.89 56.89 109.34 56.33 108.77 C42.35 95.7 22.64 90.04 3.9 90.07 C2.9 90.07 1.91 90.07 0.88 90.08 C-8.2 90.22 -16.4 91.74 -25.03 94.45 Z " fill="#000000" transform="translate(980.034912109375,-0.446044921875)"/>
<path d="M0 0 C35.97 0 71.94 0 109 0 C109.33 44.55 109.66 89.1 110 135 C113.63 130.38 117.26 125.76 121 121 C123.18 118.3 125.36 115.62 127.56 112.94 C132.33 107.1 136.97 101.19 141.55 95.2 C148.4 86.23 155.46 77.42 162.52 68.61 C167.26 62.68 171.96 56.71 176.64 50.73 C179.38 47.23 182.13 43.74 184.88 40.25 C187.15 37.36 189.42 34.47 191.68 31.57 C198.2 23.24 204.83 15.01 211.53 6.81 C213.13 4.97 213.13 4.97 214.34 2.42 C218.68 -1.52 223.45 -0.65 229.11 -0.57 C230.35 -0.57 231.59 -0.57 232.87 -0.57 C236.26 -0.57 239.66 -0.54 243.05 -0.51 C246.6 -0.48 250.15 -0.47 253.7 -0.47 C260.42 -0.45 267.13 -0.41 273.85 -0.36 C281.5 -0.3 289.15 -0.28 296.8 -0.25 C312.53 -0.2 328.27 -0.11 344 0 C339.64 6.59 339.64 6.59 337.15 9.41 C336.64 10 336.12 10.59 335.59 11.2 C335.04 11.81 334.5 12.43 333.94 13.06 C332.77 14.4 331.6 15.73 330.44 17.06 C329.57 18.06 329.57 18.06 328.68 19.07 C326.24 21.88 323.83 24.72 321.44 27.56 C317.66 32.04 313.87 36.5 310.06 40.94 C309.32 41.81 309.32 41.81 308.56 42.69 C306 45.67 303.45 48.64 300.89 51.61 C296.3 56.94 291.74 62.28 287.31 67.75 C283.76 72.13 280.03 76.32 276.23 80.49 C274 83 271.87 85.57 269.75 88.19 C265.59 93.32 261.29 98.32 256.95 103.3 C253.31 107.48 249.7 111.69 246.12 115.94 C243.28 119.32 240.42 122.68 237.5 126 C233.58 130.45 229.76 134.99 225.93 139.53 C223.92 141.91 221.91 144.29 219.88 146.66 C219.38 147.25 218.88 147.84 218.36 148.45 C217.39 149.59 216.41 150.73 215.44 151.86 C212.96 154.75 212.96 154.75 211 158 C212.21 160.57 212.21 160.57 214.02 163.47 C214.68 164.59 215.35 165.71 216.04 166.86 C216.78 168.07 217.51 169.29 218.25 170.5 C219 171.74 219.74 172.99 220.49 174.23 C222.65 177.83 224.82 181.41 227 185 C227.53 185.87 228.06 186.74 228.6 187.63 C230.34 190.5 232.09 193.36 233.85 196.22 C237.72 202.52 241.52 208.85 245.31 215.19 C250.89 224.5 256.5 233.78 262.15 243.04 C265.29 248.18 268.41 253.33 271.5 258.5 C275.14 264.58 278.81 270.64 282.5 276.69 C283.09 277.65 283.68 278.62 284.28 279.61 C284.89 280.61 285.49 281.6 286.12 282.62 C295.59 298.18 305.06 313.73 314.41 329.36 C319.04 337.08 323.72 344.78 328.4 352.47 C332.38 359.02 336.35 365.57 340.28 372.14 C340.62 372.71 340.97 373.28 341.32 373.87 C342.94 376.58 344.56 379.29 346.18 382.01 C349.66 387.85 349.66 387.85 353.42 393.51 C355 396 355 396 355 399 C339.1 399.3 323.2 399.53 307.3 399.67 C299.92 399.74 292.54 399.83 285.15 399.98 C278.72 400.11 272.28 400.19 265.84 400.22 C262.44 400.24 259.03 400.28 255.62 400.37 C234.85 400.89 234.85 400.89 230.1 397.74 C226.83 394.33 225.46 390.47 224 386 C223.02 384.26 222.01 382.55 220.94 380.87 C219.96 379.2 218.98 377.54 218 375.88 C216.87 373.96 215.74 372.04 214.61 370.12 C214.02 369.12 213.44 368.13 212.83 367.1 C210.31 362.83 207.78 358.56 205.24 354.3 C198.58 343.07 191.96 331.81 185.36 320.54 C179.8 311.03 174.15 301.56 168.47 292.12 C163.53 283.91 158.69 275.65 153.88 267.36 C150.16 260.96 146.39 254.59 142.49 248.29 C140 244.22 140 244.22 140 242 C131.29 250.51 123.92 260.29 116.45 269.87 C114 273 114 273 111.88 274.97 C108.96 279.67 109.43 284.24 109.45 289.68 C109.44 291.45 109.44 291.45 109.42 293.25 C109.4 296.48 109.39 299.71 109.39 302.94 C109.39 306.32 109.36 309.7 109.34 313.07 C109.3 319.47 109.28 325.86 109.27 332.25 C109.25 340.25 109.2 348.24 109.16 356.23 C109.08 370.49 109.04 384.74 109 399 C73.03 399 37.06 399 0 399 C0 267.33 0 135.66 0 0 Z " fill="#000000" transform="translate(1565,7)"/>
<path d="M0 0 C16.03 -0.3 32.06 -0.53 48.09 -0.67 C55.53 -0.74 62.97 -0.83 70.42 -0.98 C76.91 -1.11 83.4 -1.19 89.89 -1.22 C93.32 -1.24 96.76 -1.28 100.19 -1.37 C121.11 -1.89 121.11 -1.89 125.9 1.24 C129.2 4.65 130.54 8.52 132 13 C133.08 14.99 134.19 16.96 135.35 18.89 C136.44 20.87 137.54 22.84 138.62 24.81 C143.32 33.27 148.1 41.66 153 50 C157.76 58.11 162.42 66.28 167 74.5 C172.88 85.06 178.92 95.52 185.04 105.95 C185.55 106.82 186.06 107.69 186.58 108.58 C187.48 110.11 188.38 111.64 189.28 113.16 C192 117.78 192 117.78 192 120 C192.66 120 193.32 120 194 120 C194.27 119.29 194.54 118.57 194.82 117.84 C196.02 114.95 197.41 112.3 198.94 109.57 C199.52 108.54 200.1 107.5 200.69 106.44 C201.31 105.34 201.93 104.25 202.56 103.12 C203.2 101.99 203.84 100.86 204.49 99.69 C208.04 93.41 211.64 87.17 215.4 81.01 C219.29 74.6 222.98 68.08 226.69 61.56 C232.29 51.72 237.94 41.9 243.69 32.13 C249.93 21.5 255.93 10.74 262 0 C303.25 0 344.5 0 387 0 C384.06 5.87 381.32 11.34 377.94 16.88 C377.15 18.17 376.36 19.47 375.58 20.76 C374.95 21.79 374.95 21.79 374.32 22.83 C371.92 26.77 369.56 30.73 367.19 34.69 C366.16 36.4 365.13 38.11 364.11 39.82 C363.59 40.68 363.08 41.54 362.55 42.42 C334.67 88.89 334.67 88.89 333.58 90.71 C332.85 91.91 332.13 93.11 331.41 94.32 C329.42 97.63 327.44 100.94 325.45 104.25 C319.09 114.81 312.79 125.4 306.5 136 C299.87 147.17 293.22 158.33 286.52 169.47 C286.02 170.3 285.52 171.14 285 172 C284.01 173.65 284.01 173.65 283 175.32 C279.06 181.87 275.14 188.43 271.25 195.01 C270.85 195.68 270.46 196.34 270.05 197.03 C268.44 199.74 266.83 202.46 265.23 205.17 C264.03 207.2 262.82 209.23 261.62 211.26 C261.28 211.84 260.93 212.43 260.57 213.03 C260.22 213.62 259.87 214.22 259.51 214.82 C259.16 215.43 258.81 216.04 258.44 216.67 C257 219 257 219 255.04 221.66 C248.78 230.6 247.86 238.09 248 248.81 C247.99 250.45 247.98 252.1 247.97 253.75 C247.94 258.18 247.96 262.61 247.99 267.04 C248.01 271.69 247.99 276.33 247.97 280.98 C247.94 289.76 247.95 298.54 247.98 307.32 C248.01 319.19 247.98 331.07 247.96 342.94 C247.92 361.63 247.97 380.31 248 399 C211.7 399 175.4 399 138 399 C138.07 381.09 138.07 381.09 138.13 362.81 C138.14 355.23 138.14 347.65 138.13 340.06 C138.12 328.04 138.12 316.01 138.18 303.98 C138.23 295.22 138.24 286.46 138.21 277.7 C138.2 273.07 138.2 268.44 138.24 263.8 C138.28 259.43 138.28 255.06 138.24 250.69 C138.23 249.09 138.24 247.5 138.27 245.91 C138.47 233.84 135.25 226.39 128.18 216.67 C126.55 214.36 125.12 211.95 123.71 209.5 C123.23 208.69 122.75 207.88 122.26 207.04 C121.54 205.81 121.54 205.81 120.81 204.56 C114.2 193.31 107.48 182.11 100.76 170.92 C99.16 168.27 97.57 165.61 95.98 162.96 C91.6 155.63 87.2 148.32 82.76 141.03 C82.39 140.42 82.01 139.81 81.63 139.18 C79.8 136.17 77.97 133.17 76.14 130.17 C71.89 123.2 67.78 116.17 63.75 109.08 C61.8 105.65 59.79 102.26 57.75 98.88 C56.99 97.62 56.23 96.36 55.47 95.1 C55.08 94.44 54.68 93.78 54.27 93.11 C51.9 89.18 49.55 85.25 47.19 81.31 C46.16 79.61 45.14 77.9 44.12 76.2 C26.67 47.11 26.67 47.11 25.57 45.29 C24.86 44.1 24.15 42.91 23.44 41.73 C21.31 38.18 19.18 34.63 17.06 31.09 C16.55 30.23 16.03 29.37 15.5 28.49 C14.47 26.76 13.43 25.03 12.4 23.3 C10.12 19.49 7.82 15.7 5.46 11.94 C4.89 11.04 4.89 11.04 4.31 10.12 C3.33 8.56 2.33 6.99 1.33 5.43 C0 3 0 3 0 0 Z " fill="#000000" transform="translate(445,7)"/>
<path d="M0 0 C48.51 0 97.02 0 147 0 C147 9.9 147 19.8 147 30 C153.34 26.35 153.34 26.35 159.81 22.62 C161.14 21.86 162.47 21.1 163.84 20.31 C165.42 19.4 165.42 19.4 167.02 18.48 C168.09 17.86 169.17 17.24 170.27 16.6 C172.22 15.46 174.12 14.25 176 13 C177.93 12.98 177.93 12.98 180 14 C181.54 16.12 182.84 18.11 184.12 20.38 C184.81 21.55 185.5 22.72 186.2 23.9 C186.79 24.92 187.39 25.95 188 27 C188.99 28.48 188.99 28.48 190 30 C190 30.99 190 31.98 190 33 C189.37 33.34 188.75 33.67 188.1 34.02 C180.8 37.98 173.58 42.05 166.37 46.18 C164.48 47.26 162.58 48.35 160.68 49.43 C159.46 50.12 158.25 50.82 157.03 51.52 C155.94 52.14 154.86 52.76 153.74 53.4 C151.79 54.54 149.88 55.75 148 57 C147.52 59.7 147.52 59.7 147.57 62.92 C147.54 64.78 147.54 64.78 147.51 66.68 C147.5 68.04 147.49 69.4 147.49 70.76 C147.47 72.15 147.45 73.53 147.43 74.92 C147.39 78.57 147.36 82.23 147.33 85.88 C147.3 89.61 147.25 93.33 147.21 97.06 C147.12 104.37 147.06 111.69 147 119 C151.03 116.68 155.06 114.35 159.09 112.03 C159.99 111.51 159.99 111.51 160.9 110.99 C167.66 107.09 174.42 103.18 181.16 99.25 C182.78 98.31 182.78 98.31 184.43 97.35 C186.57 96.1 188.71 94.85 190.85 93.6 C191.9 92.99 192.95 92.38 194.03 91.75 C194.94 91.22 195.86 90.69 196.8 90.14 C199 89 199 89 201 89 C201 72.17 201 55.34 201 38 C208.59 38 216.18 38 224 38 C224 50.21 224 62.42 224 75 C234.47 68.56 234.47 68.56 244.88 62.03 C247 61 247 61 251 61 C252.65 62.97 252.65 62.97 254.23 65.71 C255.09 67.18 255.09 67.18 255.97 68.67 C256.56 69.71 257.15 70.75 257.75 71.81 C258.35 72.84 258.95 73.86 259.57 74.92 C264 82.57 264 82.57 264 86 C260.77 87.8 257.54 89.59 254.31 91.38 C253.4 91.88 252.49 92.39 251.55 92.91 C250.66 93.4 249.78 93.89 248.86 94.4 C248.05 94.85 247.24 95.3 246.4 95.76 C243.98 97.01 241.54 98.03 239 99 C239 99.66 239 100.32 239 101 C239.96 101.35 239.96 101.35 240.95 101.7 C245.07 103.46 248.91 105.62 252.81 107.81 C253.58 108.24 254.35 108.66 255.14 109.1 C260.19 111.92 265.13 114.89 270 118 C266.65 124.91 263.2 131.57 259 138 C244.87 131.38 230.98 123.66 218 115 C211 114.97 205.89 118.64 200.06 122.19 C197.94 123.45 195.82 124.72 193.69 125.99 C192.05 126.97 192.05 126.97 190.38 127.98 C184.78 131.33 179.14 134.6 173.5 137.88 C171.47 139.06 169.44 140.24 167.41 141.43 C165.94 142.29 164.47 143.14 163 144 C167.73 148.18 173.13 151.02 178.62 154.06 C180.69 155.22 182.75 156.37 184.8 157.52 C186.35 158.39 186.35 158.39 187.94 159.28 C192.56 161.88 197.16 164.53 201.75 167.19 C202.54 167.64 203.33 168.1 204.15 168.57 C207.16 170.32 210.1 172.07 213 174 C217.25 174.54 219.63 173.39 223.25 171.22 C224.24 170.63 225.24 170.04 226.26 169.43 C227.84 168.47 227.84 168.47 229.44 167.5 C230.51 166.86 231.58 166.23 232.69 165.57 C237.31 162.83 241.92 160.05 246.52 157.25 C247.74 156.52 248.96 155.79 250.19 155.06 C251.21 154.43 252.24 153.81 253.29 153.16 C256 152 256 152 258.56 151.82 C262.49 153.72 263.88 157.11 265.88 160.88 C266.29 161.61 266.71 162.34 267.13 163.1 C269.35 167.15 269.35 167.15 270 169 C268.69 172.94 267.2 173.3 263.61 175.29 C262.51 175.9 261.41 176.51 260.27 177.14 C259.69 177.46 259.11 177.77 258.52 178.1 C256.77 179.05 255.02 180.02 253.28 180.99 C248.59 183.58 244.02 186.11 239 188 C239 188.66 239 189.32 239 190 C240.09 190.41 240.09 190.41 241.2 190.84 C243.87 191.95 246.33 193.2 248.86 194.6 C250.19 195.34 250.19 195.34 251.55 196.09 C252.46 196.59 253.37 197.1 254.31 197.62 C255.24 198.14 256.18 198.66 257.13 199.19 C259.42 200.46 261.71 201.73 264 203 C263.33 206.4 262.01 208.99 260.28 211.98 C259.74 212.92 259.2 213.85 258.65 214.82 C258.08 215.78 257.52 216.75 256.94 217.75 C256.37 218.73 255.8 219.72 255.22 220.73 C253.82 223.16 252.41 225.58 251 228 C247.5 227.43 244.8 226.55 241.71 224.82 C240.94 224.39 240.16 223.95 239.36 223.5 C238.56 223.05 237.76 222.59 236.94 222.12 C236.14 221.68 235.33 221.23 234.51 220.77 C230.78 218.67 227.44 216.58 224 214 C224 226.21 224 238.42 224 251 C216.41 251 208.82 251 201 251 C201 234.17 201 217.34 201 200 C198.03 199.01 198.03 199.01 195 198 C192.54 196.65 190.14 195.27 187.75 193.81 C186.26 192.92 184.77 192.03 183.28 191.14 C182.46 190.65 181.63 190.15 180.78 189.65 C175.3 186.4 169.77 183.24 164.25 180.06 C162.03 178.78 159.8 177.5 157.58 176.22 C156.62 175.67 155.67 175.12 154.68 174.56 C152.11 173.06 149.55 171.54 147 170 C146.57 177.84 146.28 185.68 146.15 193.53 C146.08 197.17 145.98 200.81 145.76 204.45 C144.39 220.54 144.39 220.54 150.31 234.67 C156.03 239.19 162.32 242.1 169.07 244.77 C173.26 246.53 177 248.85 180.81 251.31 C183.83 253.18 186.62 254.87 190 256 C189.38 258.95 188.43 261.28 186.93 263.89 C186.53 264.6 186.13 265.31 185.71 266.04 C185.29 266.77 184.87 267.5 184.44 268.25 C184.01 269 183.59 269.74 183.15 270.51 C182.1 272.34 181.05 274.17 180 276 C174.79 275.45 170.77 272.86 166.31 270.31 C165.56 269.89 164.81 269.47 164.03 269.03 C158.29 265.79 152.66 262.4 147 259 C147 268.9 147 278.8 147 289 C137.43 289 127.86 289 118 289 C118 266.56 118 244.12 118 221 C115.03 220.67 112.06 220.34 109 220 C106.48 219.25 106.48 219.25 104.62 218.44 C101.19 216.82 101.19 216.82 98 217 C96.4 218.92 95.02 220.8 93.62 222.88 C92.73 224.17 91.83 225.46 90.93 226.76 C90.46 227.45 89.98 228.14 89.49 228.85 C86.94 232.52 84.31 236.13 81.69 239.75 C80.59 241.27 79.5 242.78 78.4 244.3 C76.04 247.56 73.68 250.82 71.32 254.08 C70.42 255.31 70.42 255.31 69.51 256.58 C68.36 258.16 67.2 259.75 66.05 261.34 C65.53 262.05 65.02 262.77 64.48 263.5 C64.03 264.13 63.57 264.76 63.1 265.41 C61.93 267.02 61.93 267.02 61 269 C55.55 268.01 51.62 264.4 47.25 261.19 C45.92 260.24 45.92 260.24 44.56 259.28 C43.72 258.67 42.88 258.05 42.02 257.42 C40.86 256.58 40.86 256.58 39.68 255.72 C38 254 38 254 38 250 C38.9 248.27 38.9 248.27 40.17 246.52 C40.64 245.86 41.12 245.2 41.61 244.52 C42.13 243.81 42.65 243.1 43.19 242.38 C43.73 241.63 44.26 240.89 44.82 240.12 C45.96 238.54 47.11 236.96 48.25 235.39 C49.95 233.07 51.63 230.74 53.3 228.41 C54.39 226.9 55.48 225.39 56.56 223.88 C57.36 222.76 57.36 222.76 58.18 221.62 C60.84 217.94 63.53 214.28 66.3 210.67 C66.82 209.99 67.34 209.31 67.87 208.6 C68.85 207.32 69.84 206.04 70.84 204.77 C73.24 201.7 73.24 201.7 74.07 198.01 C72.42 194.92 70.47 192.09 68.44 189.25 C68.01 188.65 67.59 188.05 67.15 187.43 C66.11 185.95 65.05 184.47 64 183 C56.05 184.53 48.62 187.11 41 189.81 C27.45 194.56 14.03 198.88 0 202 C0 135.34 0 68.68 0 0 Z " fill="#FAFCFD" transform="translate(0,7)"/>
<path d="M0 0 C38.94 0 77.88 0 118 0 C118 22.44 118 44.88 118 68 C114.04 68.99 110.08 69.98 106 71 C104.35 71.66 102.7 72.32 101 73 C98.47 72.79 97.42 72.43 95.65 70.61 C95.05 69.72 95.05 69.72 94.44 68.82 C93.98 68.15 93.52 67.47 93.04 66.78 C92.55 66.05 92.07 65.32 91.56 64.56 C90.49 63 89.42 61.44 88.35 59.89 C87.8 59.08 87.25 58.27 86.68 57.44 C83.99 53.54 81.22 49.71 78.44 45.88 C77.9 45.13 77.37 44.39 76.82 43.63 C74.15 39.94 71.46 36.26 68.73 32.6 C68.22 31.91 67.71 31.22 67.18 30.5 C66.21 29.2 65.23 27.89 64.25 26.59 C61 22.22 61 22.22 61 20 C55.48 22.99 50.55 26.44 45.56 30.25 C44.47 31.08 44.47 31.08 43.35 31.93 C41.56 33.28 39.78 34.64 38 36 C39.46 40.33 41.66 43.38 44.5 46.94 C48.05 51.45 51.5 56 54.81 60.69 C55.63 61.84 56.45 63 57.27 64.16 C57.7 64.76 58.13 65.37 58.57 66 C61.92 70.7 65.32 75.37 68.71 80.05 C69.24 80.78 69.77 81.51 70.31 82.26 C70.78 82.91 71.25 83.56 71.74 84.23 C75.01 88.83 75.01 88.83 74.84 90.91 C73.79 93.51 72.35 95.33 70.56 97.5 C68.3 100.25 66.54 102.8 65 106 C56.14 105.54 48.15 102.67 39.81 99.88 C38.4 99.41 36.99 98.94 35.58 98.48 C34.16 98.01 32.74 97.54 31.27 97.05 C20.87 93.63 10.43 90.32 0 87 C0 58.29 0 29.58 0 0 Z " fill="#01549F" transform="translate(0,7)"/>
<path d="M0 0 C0 31.02 0 62.04 0 94 C-14.41 89.2 -23.77 81.46 -30.63 67.74 C-35.78 55.78 -37.11 42.17 -33.11 29.59 C-31 24.67 -28.12 20.34 -25 16 C-24.58 15.4 -24.15 14.8 -23.71 14.19 C-20.47 9.96 -16.34 7 -12 4 C-10.7 3.1 -10.7 3.1 -9.38 2.19 C-6.38 0.69 -3.37 0 0 0 Z " fill="#02559F" transform="translate(118,105)"/>
<path d="M0 0 C10.28 2.06 20.14 5.67 30.06 9 C31.39 9.44 32.71 9.89 34.03 10.33 C36.48 11.15 38.93 11.97 41.38 12.79 C45.59 14.2 49.79 15.6 54 17 C54 23.93 54 30.86 54 38 C50.35 39.27 46.71 40.54 43.06 41.81 C42.04 42.17 41.02 42.53 39.97 42.89 C31.28 45.92 22.58 48.85 13.81 51.62 C13.14 51.84 12.47 52.06 11.78 52.28 C7.81 53.53 4.15 54.31 0 55 C0 36.85 0 18.7 0 0 Z " fill="#01549F" transform="translate(0,124)"/>
<path d="M0 0 C0.94 -0.02 1.88 -0.04 2.84 -0.06 C12.84 -0.05 20.73 3.73 28.06 10.44 C37.26 20.47 37.87 30.79 37.54 43.83 C36.94 53.81 32.55 61.03 25.2 67.75 C15.6 75.33 5.16 77.63 -6.94 76.44 C-17.74 74.18 -26.38 68.79 -32.65 59.64 C-38.8 49.09 -39.82 36.95 -36.94 25.12 C-33.76 16.28 -27.26 7.94 -18.94 3.44 C-12.49 0.49 -7.05 -0.05 0 0 Z M-22.69 19.12 C-27.17 24.94 -29.72 32.79 -29.32 40.12 C-27.93 48.59 -24.6 55.9 -17.94 61.44 C-9.74 66.43 -1.95 69.11 7.62 66.82 C15.02 64.2 21.18 59.84 25.51 53.22 C29.35 45.13 29.69 35.48 26.96 27.02 C23.37 19.27 19.16 14.68 11.75 10.62 C-2.16 6.15 -12.46 9.13 -22.69 19.12 Z " fill="#000000" transform="translate(1962.9375,-0.4375)"/>
<path d="M0 0 C3.46 -0.08 6.93 -0.16 10.5 -0.25 C12.11 -0.3 12.11 -0.3 13.76 -0.36 C20.05 -0.43 24.81 0.28 30 4 C33.46 7.46 33.72 10.81 34.07 15.53 C33.95 19.9 32.17 22.7 29.31 25.88 C28.66 26.43 28.66 26.43 28 27 C29.45 30.88 31.25 34.48 33.2 38.13 C34 40 34 40 34 43 C30.04 43 26.08 43 22 43 C21.29 41.61 21.29 41.61 20.57 40.19 C19.95 38.98 19.32 37.77 18.69 36.56 C18.38 35.95 18.07 35.34 17.75 34.71 C15.82 30.84 15.82 30.84 12 29 C12 33.62 12 38.24 12 43 C8.04 43 4.08 43 0 43 C0 28.81 0 14.62 0 0 Z M12 11 C12 13.97 12 16.94 12 20 C16.43 20.3 16.43 20.3 20.38 18.5 C21.18 17.76 21.18 17.76 22 17 C21.66 14.53 21.66 14.53 21 12 C18.04 10.52 15.26 10.94 12 11 Z " fill="#000000" transform="translate(1947,15)"/>
<path d="M0 0 C0.33 0 0.66 0 1 0 C1 19.47 1 38.94 1 59 C1.99 59.33 2.98 59.66 4 60 C2.68 60.66 1.36 61.32 0 62 C0 41.54 0 21.08 0 0 Z " fill="#286EAD" transform="translate(147,64)"/>
<path d="M0 0 C0.66 0.33 1.32 0.66 2 1 C-1.63 4.63 -5.26 8.26 -9 12 C-9.66 11.67 -10.32 11.34 -11 11 C-7.64 6.75 -4.25 3.36 0 0 Z " fill="#286EAD" transform="translate(104,110)"/>
<path d="M0 0 C0.66 0.33 1.32 0.66 2 1 C1.01 2.65 0.02 4.3 -1 6 C-2.32 5.67 -3.64 5.34 -5 5 C-5 4.34 -5 3.68 -5 3 C-2.62 1.31 -2.62 1.31 0 0 Z " fill="#296FAE" transform="translate(244,103)"/>
</svg>
